#N canvas 1 61 1585 813 10;
#X obj 155 -84 inlet~;
#X text 204 -89 each chain has 8 "links \, " each link can have 1 effect
registered to it.;
#X obj 164 920 throw~ master;
#X text 11 938 should throw some volume + solo/mute controls here use
horizontal sliders;
#N canvas 154 118 450 300 loopLinkNumber 0;
#X obj 41 -72 f 0;
#X obj 41 -101 t f b;
#X obj 11 -10 ==;
#X text 36 -152 switches last loop to bypass (if there was one in use)
ignores repeated presses of loop button;
#X obj 11 57 tgl 15 0 empty empty empty 17 7 0 10 -262144 -1 -1 0 1
;
#X obj 11 12 - 1;
#X obj 11 34 * -1;
#X obj 83 16 f;
#X obj 12 -45 t b f;
#X obj 43 79 spigot;
#X obj 41 -123 inlet loopLinkNumber;
#X obj 41 108 outlet loopOff;
#X connect 0 0 7 1;
#X connect 0 0 2 1;
#X connect 1 0 0 1;
#X connect 1 0 8 0;
#X connect 1 1 0 0;
#X connect 2 0 5 0;
#X connect 4 0 9 1;
#X connect 5 0 6 0;
#X connect 6 0 4 0;
#X connect 7 0 9 0;
#X connect 8 0 7 0;
#X connect 8 1 2 0;
#X connect 9 0 11 0;
#X connect 10 0 1 0;
#X restore 653 24 pd loopLinkNumber;
#N canvas 941 176 573 446 looper 0;
#X obj 43 152 looper;
#X obj 128 93 inlet looperButton;
#X text -122 35 one looper per chain for now... it's a huge memory
hog;
#X obj 44 128 inlet~ topUpperChainLooperIn;
#X obj 42 202 outlet~ topUpperChainLooperOut;
#X connect 0 0 4 0;
#X connect 1 0 0 1;
#X connect 3 0 0 0;
#X restore 667 337 pd looper;
#X obj 653 0 r \$0-loopLinkNumber;
#X obj 220 14 s \$0-loopLinkNumber;
#X obj 653 50 s \$0-loopOff;
#X obj 302 -60 r \$0-loopOff;
#X obj 727 308 r \$0-loopButton;
#X obj 175 -60 r~ \$0-loopOutput;
#X obj 666 365 s~ \$0-loopOutput;
#X obj 615 275 catch~ \$0-loopInput;
#X obj 193 36 throw~ \$0-loopInput;
#X obj 275 -8 s \$0-loopButton;
#X obj 220 134 s \$0-loopLinkNumber;
#X obj 302 60 r \$0-loopOff;
#X obj 175 60 r~ \$0-loopOutput;
#X obj 193 158 throw~ \$0-loopInput;
#X obj 275 112 s \$0-loopButton;
#X obj 222 264 s \$0-loopLinkNumber;
#X obj 313 180 r \$0-loopOff;
#X obj 186 180 r~ \$0-loopOutput;
#X obj 194 282 throw~ \$0-loopInput;
#X obj 276 232 s \$0-loopButton;
#X obj 221 371 s \$0-loopLinkNumber;
#X obj 303 300 r \$0-loopOff;
#X obj 176 300 r~ \$0-loopOutput;
#X obj 193 390 throw~ \$0-loopInput;
#X obj 275 352 s \$0-loopButton;
#X obj 221 490 s \$0-loopLinkNumber;
#X obj 303 418 r \$0-loopOff;
#X obj 176 418 r~ \$0-loopOutput;
#X obj 193 510 throw~ \$0-loopInput;
#X obj 275 470 s \$0-loopButton;
#X obj 220 608 s \$0-loopLinkNumber;
#X obj 302 536 r \$0-loopOff;
#X obj 178 537 r~ \$0-loopOutput;
#X obj 182 628 throw~ \$0-loopInput;
#X obj 274 588 s \$0-loopButton;
#X obj 303 648 r \$0-loopOff;
#X obj 176 648 r~ \$0-loopOutput;
#X obj 275 700 s \$0-loopButton;
#X obj 303 768 r \$0-loopOff;
#X obj 176 768 r~ \$0-loopOutput;
#X obj 275 820 s \$0-loopButton;
#X obj 189 863 throw~ \$0-loopInput;
#X obj 223 840 s \$0-loopLinkNumber;
#X obj 189 742 throw~ \$0-loopInput;
#X obj 223 720 s \$0-loopLinkNumber;
#X obj 166 -31 chainLink 32;
#X obj 166 89 chainLink 33;
#X obj 167 209 chainLink 34;
#X obj 167 328 chainLink 35;
#X obj 167 447 chainLink 36;
#X obj 166 565 chainLink 37;
#X obj 167 677 chainLink 38;
#X obj 167 797 chainLink 39;
#X obj 166 892 *~ 1;
#X obj 476 813 / 127;
#X obj 476 891 line;
#X msg 476 860 \$1 10;
#X obj 476 789 ctlin 2;
#X obj 585 737 loadbang;
#X obj 476 835 * 1;
#X obj 586 813 ctlout 10 3;
#X obj 586 757 del 100;
#X msg 586 781 0;
#X connect 0 0 51 0;
#X connect 4 0 8 0;
#X connect 5 0 12 0;
#X connect 6 0 4 0;
#X connect 9 0 51 2;
#X connect 10 0 5 1;
#X connect 11 0 51 1;
#X connect 13 0 5 0;
#X connect 17 0 52 2;
#X connect 18 0 52 1;
#X connect 22 0 53 2;
#X connect 23 0 53 1;
#X connect 27 0 54 2;
#X connect 28 0 54 1;
#X connect 32 0 55 2;
#X connect 33 0 55 1;
#X connect 37 0 56 2;
#X connect 38 0 56 1;
#X connect 41 0 57 2;
#X connect 42 0 57 1;
#X connect 44 0 58 2;
#X connect 45 0 58 1;
#X connect 51 0 52 0;
#X connect 51 1 14 0;
#X connect 51 2 7 0;
#X connect 51 3 15 0;
#X connect 52 0 53 0;
#X connect 52 1 19 0;
#X connect 52 2 16 0;
#X connect 52 3 20 0;
#X connect 53 0 54 0;
#X connect 53 1 24 0;
#X connect 53 2 21 0;
#X connect 53 3 25 0;
#X connect 54 0 55 0;
#X connect 54 1 29 0;
#X connect 54 2 26 0;
#X connect 54 3 30 0;
#X connect 55 0 56 0;
#X connect 55 1 34 0;
#X connect 55 2 31 0;
#X connect 55 3 35 0;
#X connect 56 0 57 0;
#X connect 56 1 39 0;
#X connect 56 2 36 0;
#X connect 56 3 40 0;
#X connect 57 0 58 0;
#X connect 57 1 49 0;
#X connect 57 2 50 0;
#X connect 57 3 43 0;
#X connect 58 0 59 0;
#X connect 58 1 47 0;
#X connect 58 2 48 0;
#X connect 58 3 46 0;
#X connect 59 0 2 0;
#X connect 60 0 65 0;
#X connect 61 0 59 1;
#X connect 62 0 61 0;
#X connect 63 0 60 0;
#X connect 64 0 67 0;
#X connect 65 0 62 0;
#X connect 67 0 68 0;
#X connect 68 0 60 0;
#X connect 68 0 66 0;
