#N canvas 1 388 1255 415 10;
#X obj 14 74 inlet~;
#X obj 13 303 outlet~;
#X obj 150 45 inlet onOff;
#X obj 150 70 sel 0 1;
#X obj 150 204 switch~;
#X obj 60 154 line~;
#X msg 53 131 1 10;
#X msg 135 167 0;
#X msg 211 166 1;
#X obj 13 182 *~;
#X msg 105 131 0 10;
#X obj 150 113 del 10;
#X obj 210 113 del 10;
#X obj 555 156 sel 1;
#X obj 555 209 f;
#X obj 554 130 spigot;
#X obj 779 64 inlet active;
#X obj 555 239 ctlout 1 3;
#X obj 675 156 sel 1;
#X obj 675 209 f;
#X obj 674 130 spigot;
#X msg 714 186 0;
#X obj 725 154 loadbang;
#X obj 805 156 sel 1;
#X obj 805 209 f;
#X obj 804 130 spigot;
#X msg 844 186 0;
#X obj 855 154 loadbang;
#X obj 925 156 sel 1;
#X obj 925 209 f;
#X obj 924 130 spigot;
#X msg 964 186 0;
#X obj 975 154 loadbang;
#X obj 675 239 ctlout 2 3;
#X obj 805 239 ctlout 3 3;
#X obj 925 239 ctlout 4 3;
#X obj 587 176 r \$0-gain;
#X obj 334 115 ctlin 6 1;
#X obj 334 141 spigot;
#X obj 334 161 spigot;
#X obj 334 200 s \$0-gain;
#X obj 265 144 loadbang;
#X msg 265 166 127;
#X obj 76 219 r \$0-gain;
#X obj 76 241 / 127;
#X obj 14 275 *~;
#X connect 0 0 9 0;
#X connect 2 0 3 0;
#X connect 2 0 13 0;
#X connect 2 0 15 1;
#X connect 2 0 20 1;
#X connect 2 0 18 0;
#X connect 2 0 25 1;
#X connect 2 0 23 0;
#X connect 2 0 30 1;
#X connect 2 0 28 0;
#X connect 2 0 38 1;
#X connect 3 0 10 0;
#X connect 3 0 11 0;
#X connect 3 1 12 0;
#X connect 5 0 9 1;
#X connect 6 0 5 0;
#X connect 7 0 4 0;
#X connect 8 0 4 0;
#X connect 9 0 45 0;
#X connect 10 0 5 0;
#X connect 11 0 7 0;
#X connect 12 0 8 0;
#X connect 12 0 6 0;
#X connect 13 0 14 0;
#X connect 14 0 17 0;
#X connect 15 0 13 0;
#X connect 16 0 30 0;
#X connect 16 0 25 0;
#X connect 16 0 20 0;
#X connect 16 0 15 0;
#X connect 16 0 39 1;
#X connect 18 0 19 0;
#X connect 19 0 33 0;
#X connect 20 0 18 0;
#X connect 21 0 19 1;
#X connect 22 0 21 0;
#X connect 23 0 24 0;
#X connect 24 0 34 0;
#X connect 25 0 23 0;
#X connect 26 0 24 1;
#X connect 27 0 26 0;
#X connect 28 0 29 0;
#X connect 29 0 35 0;
#X connect 30 0 28 0;
#X connect 31 0 29 1;
#X connect 32 0 31 0;
#X connect 36 0 14 1;
#X connect 37 0 38 0;
#X connect 38 0 39 0;
#X connect 39 0 40 0;
#X connect 41 0 42 0;
#X connect 42 0 40 0;
#X connect 43 0 44 0;
#X connect 44 0 45 1;
#X connect 45 0 1 0;
