#N canvas 0 0 645 415 10;
#X obj 194 74 inlet~;
#X obj 193 203 outlet~;
#X obj 330 45 inlet onOff;
#X obj 330 70 sel 0 1;
#X obj 330 204 switch~;
#X obj 240 154 line~;
#X msg 233 131 1 10;
#X msg 315 167 0;
#X msg 391 166 1;
#X obj 193 182 *~;
#X msg 285 131 0 10;
#X obj 330 113 del 10;
#X obj 390 113 del 10;
#X connect 0 0 9 0;
#X connect 2 0 3 0;
#X connect 3 0 10 0;
#X connect 3 0 11 0;
#X connect 3 1 12 0;
#X connect 5 0 9 1;
#X connect 6 0 5 0;
#X connect 7 0 4 0;
#X connect 8 0 4 0;
#X connect 9 0 1 0;
#X connect 10 0 5 0;
#X connect 11 0 7 0;
#X connect 12 0 8 0;
#X connect 12 0 6 0;
