#N canvas -140 396 1255 415 10;
#X obj 14 74 inlet~;
#X obj 13 203 outlet~;
#X obj 150 45 inlet onOff;
#X obj 150 70 sel 0 1;
#X obj 150 204 switch~;
#X obj 60 154 line~;
#X msg 53 131 1 10;
#X msg 135 167 0;
#X msg 211 166 1;
#X obj 13 182 *~;
#X msg 105 131 0 10;
#X obj 150 113 del 10;
#X obj 210 113 del 10;
#X obj 290 149 ctlout 1 3;
#X msg 290 122 0;
#X msg 380 122 0;
#X obj 380 149 ctlout 2 3;
#X msg 470 122 0;
#X msg 560 122 0;
#X obj 470 149 ctlout 3 3;
#X obj 560 149 ctlout 4 3;
#X obj 704 156 sel 1;
#X obj 704 209 f;
#X obj 703 130 spigot;
#X msg 743 186 0;
#X obj 754 154 loadbang;
#X obj 928 64 inlet active;
#X obj 704 239 ctlout 1 3;
#X obj 824 156 sel 1;
#X obj 824 209 f;
#X obj 823 130 spigot;
#X msg 863 186 0;
#X obj 874 154 loadbang;
#X obj 954 156 sel 1;
#X obj 954 209 f;
#X obj 953 130 spigot;
#X msg 993 186 0;
#X obj 1004 154 loadbang;
#X obj 1074 156 sel 1;
#X obj 1074 209 f;
#X obj 1073 130 spigot;
#X msg 1113 186 0;
#X obj 1124 154 loadbang;
#X obj 824 239 ctlout 2 3;
#X obj 954 239 ctlout 3 3;
#X obj 1074 239 ctlout 4 3;
#X connect 0 0 9 0;
#X connect 2 0 3 0;
#X connect 2 0 21 0;
#X connect 2 0 23 1;
#X connect 2 0 30 1;
#X connect 2 0 28 0;
#X connect 2 0 35 1;
#X connect 2 0 33 0;
#X connect 2 0 40 1;
#X connect 2 0 38 0;
#X connect 3 0 10 0;
#X connect 3 0 11 0;
#X connect 3 1 12 0;
#X connect 3 1 14 0;
#X connect 3 1 15 0;
#X connect 3 1 17 0;
#X connect 3 1 18 0;
#X connect 5 0 9 1;
#X connect 6 0 5 0;
#X connect 7 0 4 0;
#X connect 8 0 4 0;
#X connect 9 0 1 0;
#X connect 10 0 5 0;
#X connect 11 0 7 0;
#X connect 12 0 8 0;
#X connect 12 0 6 0;
#X connect 14 0 13 0;
#X connect 15 0 16 0;
#X connect 17 0 19 0;
#X connect 18 0 20 0;
#X connect 21 0 22 0;
#X connect 22 0 27 0;
#X connect 23 0 21 0;
#X connect 24 0 22 1;
#X connect 25 0 24 0;
#X connect 26 0 40 0;
#X connect 26 0 35 0;
#X connect 26 0 30 0;
#X connect 26 0 23 0;
#X connect 28 0 29 0;
#X connect 29 0 43 0;
#X connect 30 0 28 0;
#X connect 31 0 29 1;
#X connect 32 0 31 0;
#X connect 33 0 34 0;
#X connect 34 0 44 0;
#X connect 35 0 33 0;
#X connect 36 0 34 1;
#X connect 37 0 36 0;
#X connect 38 0 39 0;
#X connect 39 0 45 0;
#X connect 40 0 38 0;
#X connect 41 0 39 1;
#X connect 42 0 41 0;
