#N canvas 42 180 610 345 10;
#X obj 92 32 inlet~;
#X obj 419 70 f \$1;
#X obj 335 270 ==;
#X obj 419 46 loadbang;
#X obj 255 47 notein;
#X obj 236 130 route 127;
#X obj 268 73 t b f;
#X obj 236 103 pack f f;
#X obj 236 151 max 15;
#X obj 236 174 min 48;
#X obj 236 233 sel 15 48;
#X obj 236 197 t f f;
#X obj 98 290 outlet~;
#X obj 335 244 f;
#X obj 335 291 tgl 15 0 empty empty empty 17 7 0 10 -262144 -1 -1 0
1;
#X connect 1 0 2 1;
#X connect 2 0 14 0;
#X connect 3 0 1 0;
#X connect 4 0 6 0;
#X connect 4 1 7 0;
#X connect 5 0 8 0;
#X connect 6 0 7 0;
#X connect 6 1 7 1;
#X connect 7 0 5 0;
#X connect 8 0 9 0;
#X connect 9 0 11 0;
#X connect 10 2 13 0;
#X connect 11 0 10 0;
#X connect 11 1 13 1;
#X connect 13 0 2 0;
