#N canvas 0 61 1600 814 10;
#X obj 44 75 inlet~;
#X obj 40 535 outlet~;
#N canvas 0 50 335 506 activateLogic 0;
#X obj 209 50 f \$1;
#X obj 125 250 ==;
#X obj 209 26 loadbang;
#X obj 26 131 max 15;
#X obj 26 154 min 48;
#X obj 26 213 sel 15 48;
#X obj 26 177 t f f;
#X obj 125 224 f;
#X obj 190 274 outlet;
#X obj 26 78 inlet;
#X connect 0 0 1 1;
#X connect 1 0 8 0;
#X connect 2 0 0 0;
#X connect 3 0 4 0;
#X connect 4 0 6 0;
#X connect 5 2 7 0;
#X connect 6 0 5 0;
#X connect 6 1 7 1;
#X connect 7 0 1 0;
#X connect 9 0 3 0;
#X restore 958 56 pd activateLogic;
#N canvas 334 418 651 418 ledControl 0;
#X obj 198 16 inlet;
#X obj 205 73 sel 1;
#X obj 205 94 t b b;
#X obj 190 222 noteout 3;
#X obj 190 145 pack \$1 127;
#X obj 190 167 unpack f f;
#X obj 190 195 * 2;
#X obj 43 169 f;
#X obj 67 20 r \$0-currentEffect;
#X obj 43 219 unpack f f;
#X obj 43 241 * 2;
#X obj 43 263 noteout 3;
#X obj 72 167 s allFXLightsOff;
#X obj 54 48 t b f;
#X obj 45 135 t b b;
#X obj 43 194 pack \$1 32;
#X obj 314 142 s allChainLightsOff;
#X connect 0 0 1 0;
#X connect 1 0 2 0;
#X connect 2 0 4 0;
#X connect 2 0 14 0;
#X connect 2 1 16 0;
#X connect 4 0 5 0;
#X connect 5 0 6 0;
#X connect 5 1 3 1;
#X connect 6 0 3 0;
#X connect 7 0 15 0;
#X connect 8 0 13 0;
#X connect 9 0 10 0;
#X connect 9 1 11 1;
#X connect 10 0 11 0;
#X connect 13 0 14 0;
#X connect 13 1 7 1;
#X connect 14 0 7 0;
#X connect 14 1 12 0;
#X connect 15 0 9 0;
#X restore 958 85 pd ledControl;
#X obj 1083 118 tgl 15 0 empty empty empty 17 7 0 10 -262144 -1 -1
0 1;
#X obj 1116 99 min 16;
#X obj 41 202 bypass;
#X obj 1308 142 r \$0-allOff;
#X obj 1150 219 s \$0-allOff;
#X obj 74 155 r \$0-bypass;
#X msg 1236 176 0;
#X obj 1236 200 s \$0-bypass;
#X obj 1117 195 sel 16;
#X obj 1090 168 t f f;
#X obj 1009 299 s \$0-bypass;
#X msg 1009 278 1;
#N canvas 541 267 450 300 noteInput 0;
#X obj 36 120 route 127;
#X obj 68 43 t b f;
#X obj 36 93 pack f f;
#X obj 55 17 notein 1;
#X obj 47 72 f;
#X obj 36 145 outlet;
#X connect 0 0 5 0;
#X connect 1 0 4 0;
#X connect 1 1 2 1;
#X connect 2 0 0 0;
#X connect 3 0 1 0;
#X connect 3 1 4 1;
#X connect 4 0 2 0;
#X restore 1036 18 pd noteInput;
#X obj 774 20 loadbang;
#X obj 816 69 s \$0-allOff;
#X obj 784 45 t b b;
#X obj 773 95 s \$0-bypass;
#X msg 773 66 1;
#X obj 185 135 r \$0-looper;
#X obj 1316 200 s \$0-looper;
#X msg 1316 176 0;
#X obj 125 276 bypass;
#X msg 1090 282 1;
#X obj 1090 303 s \$0-looper;
#X obj 241 190 \$0;
#X obj 1288 37 == \$0;
#X msg 1248 83 1;
#X msg 1312 83 0;
#X obj 1224 110 s \$0-bypass;
#X obj 1324 111 s \$0-looper;
#X obj 1288 58 sel 1;
#X obj 241 166 sel 1;
#X obj 947 124 tgl 15 0 empty empty empty 17 7 0 10 -262144 -1 -1 0
1;
#X obj 819 144 r buttonlistener;
#X obj 852 211 r \$0-looper;
#X obj 861 236 tgl 15 0 empty empty empty 17 7 0 10 -262144 -1 -1 0
1;
#X obj 320 308 feedbackDelay;
#X msg 1192 281 1;
#X obj 1192 303 s \$0-feedbackDelay;
#X obj 364 280 r \$0-feedbackDelay;
#X msg 1396 176 0;
#X obj 1396 200 s \$0-feedbackDelay;
#X obj 890 167 spigot;
#X obj 869 264 spigot;
#X obj 1106 148 spigot;
#X obj 1329 302 s \$0-cubicDistortion;
#X msg 1329 281 1;
#X obj 510 280 r \$0-cubicDistortion;
#X obj 459 309 cubicDistortion;
#X msg 1246 226 0;
#X obj 1246 250 s \$0-cubicDistortion;
#X obj 1128 358 s \$0-currentEffect;
#X msg 1101 327 0;
#X msg 1151 327 1;
#X msg 1191 327 2;
#X msg 1231 327 3;
#X obj 853 296 outlet looperButton;
#X obj 241 210 outlet looperLinkNumber;
#X obj 1288 16 inlet loopOff;
#X msg 1418 86 0;
#X obj 1423 112 s \$0-currentEffect;
#X obj 127 229 outlet~ LooperIn;
#X obj 126 253 inlet~ LooperOut;
#X obj 689 307 flanger;
#X obj 712 270 r \$0-flanger;
#X msg 1479 281 1;
#X msg 1272 326 4;
#X obj 1479 302 s \$0-flanger;
#X msg 1529 176 0;
#X obj 1529 200 s \$0-flanger;
#X obj 126 204 bypassLooperIn;
#X obj 754 335 r \$0-granular;
#X msg 1568 278 1;
#X obj 1570 302 s \$0-granular;
#X msg 1312 326 5;
#X msg 1619 176 0;
#X obj 1619 200 s \$0-granular;
#X obj 728 363 granular;
#X obj 849 366 reverb;
#X obj 868 336 r \$0-reverb;
#X msg 1394 226 0;
#X obj 1394 250 s \$0-reverb;
#X msg 1668 278 1;
#X obj 1670 302 s \$0-reverb;
#X obj 1102 246 sel 0 1 2 3 4 5 6;
#X msg 1352 326 6;
#X connect 0 0 6 0;
#X connect 0 0 40 0;
#X connect 0 0 52 0;
#X connect 0 0 67 0;
#X connect 0 0 74 0;
#X connect 0 0 81 0;
#X connect 0 0 82 0;
#X connect 2 0 3 0;
#X connect 2 0 4 0;
#X connect 2 0 36 0;
#X connect 2 0 40 2;
#X connect 2 0 52 2;
#X connect 2 0 67 2;
#X connect 2 0 6 2;
#X connect 2 0 74 2;
#X connect 2 0 81 2;
#X connect 2 0 82 2;
#X connect 4 0 48 1;
#X connect 5 0 48 0;
#X connect 6 0 1 0;
#X connect 7 0 10 0;
#X connect 7 0 24 0;
#X connect 7 0 44 0;
#X connect 7 0 53 0;
#X connect 7 0 72 0;
#X connect 7 0 79 0;
#X connect 7 0 84 0;
#X connect 9 0 6 1;
#X connect 10 0 11 0;
#X connect 12 1 8 0;
#X connect 13 0 88 0;
#X connect 13 1 12 0;
#X connect 15 0 14 0;
#X connect 16 0 2 0;
#X connect 16 0 5 0;
#X connect 17 0 19 0;
#X connect 19 0 21 0;
#X connect 19 1 18 0;
#X connect 21 0 20 0;
#X connect 22 0 25 1;
#X connect 22 0 35 0;
#X connect 22 0 74 1;
#X connect 24 0 23 0;
#X connect 25 0 1 0;
#X connect 26 0 27 0;
#X connect 28 0 61 0;
#X connect 29 0 34 0;
#X connect 30 0 32 0;
#X connect 31 0 33 0;
#X connect 34 0 31 0;
#X connect 34 0 30 0;
#X connect 34 0 63 0;
#X connect 35 0 28 0;
#X connect 36 0 46 1;
#X connect 37 0 46 0;
#X connect 38 0 39 0;
#X connect 39 0 47 1;
#X connect 40 0 1 0;
#X connect 41 0 42 0;
#X connect 43 0 40 1;
#X connect 44 0 45 0;
#X connect 46 0 47 0;
#X connect 47 0 60 0;
#X connect 48 0 13 0;
#X connect 50 0 49 0;
#X connect 51 0 52 1;
#X connect 52 0 1 0;
#X connect 53 0 54 0;
#X connect 56 0 55 0;
#X connect 57 0 55 0;
#X connect 58 0 55 0;
#X connect 59 0 55 0;
#X connect 62 0 29 0;
#X connect 63 0 64 0;
#X connect 66 0 25 0;
#X connect 67 0 1 0;
#X connect 68 0 67 1;
#X connect 69 0 71 0;
#X connect 70 0 55 0;
#X connect 72 0 73 0;
#X connect 74 0 65 0;
#X connect 75 0 81 1;
#X connect 76 0 77 0;
#X connect 78 0 55 0;
#X connect 79 0 80 0;
#X connect 81 0 1 0;
#X connect 82 0 1 0;
#X connect 83 0 82 1;
#X connect 84 0 85 0;
#X connect 86 0 87 0;
#X connect 88 0 15 0;
#X connect 88 0 56 0;
#X connect 88 1 26 0;
#X connect 88 1 57 0;
#X connect 88 2 41 0;
#X connect 88 2 58 0;
#X connect 88 3 50 0;
#X connect 88 3 59 0;
#X connect 88 4 69 0;
#X connect 88 4 70 0;
#X connect 88 5 76 0;
#X connect 88 5 78 0;
#X connect 88 6 86 0;
#X connect 88 6 89 0;
#X connect 89 0 55 0;
