#N canvas 521 125 1047 602 10;
#X obj 92 52 inlet~;
#X obj 799 50 f \$1;
#X obj 715 250 ==;
#X obj 799 26 loadbang;
#X obj 616 110 route 127;
#X obj 648 33 t b f;
#X obj 616 83 pack f f;
#X obj 616 131 max 15;
#X obj 616 154 min 48;
#X obj 616 213 sel 15 48;
#X obj 616 177 t f f;
#X obj 98 310 outlet~;
#X obj 715 224 f;
#X obj 715 293 sel 1;
#X obj 756 343 s allTopUpperOff;
#X obj 715 314 t b b;
#X obj 700 442 noteout 3;
#X obj 700 365 pack \$1 127;
#X obj 700 387 unpack f f;
#X obj 700 415 * 2;
#X obj 635 7 notein 1;
#X obj 530 237 t b;
#X obj 526 264 f;
#X obj 518 300 + 1;
#X floatatom 476 314 5 0 0 0 - - -;
#X obj 627 62 f;
#X connect 1 0 2 1;
#X connect 2 0 13 0;
#X connect 3 0 1 0;
#X connect 4 0 7 0;
#X connect 5 0 25 0;
#X connect 5 1 6 1;
#X connect 6 0 4 0;
#X connect 6 0 21 0;
#X connect 7 0 8 0;
#X connect 8 0 10 0;
#X connect 9 2 12 0;
#X connect 10 0 9 0;
#X connect 10 1 12 1;
#X connect 12 0 2 0;
#X connect 13 0 15 0;
#X connect 15 0 17 0;
#X connect 15 1 14 0;
#X connect 17 0 18 0;
#X connect 18 0 19 0;
#X connect 18 1 16 1;
#X connect 19 0 16 0;
#X connect 20 0 5 0;
#X connect 20 1 25 1;
#X connect 21 0 22 0;
#X connect 22 0 23 0;
#X connect 23 0 22 1;
#X connect 23 0 24 0;
#X connect 25 0 6 0;
