#N canvas 0 0 1586 814 10;
#X obj 42 52 inlet~;
#X obj 40 335 outlet~;
#N canvas 0 0 335 506 activateLogic 0;
#X obj 209 50 f \$1;
#X obj 125 250 ==;
#X obj 209 26 loadbang;
#X obj 26 131 max 15;
#X obj 26 154 min 48;
#X obj 26 213 sel 15 48;
#X obj 26 177 t f f;
#X obj 125 224 f;
#X obj 190 274 outlet;
#X obj 26 78 inlet;
#X connect 0 0 1 1;
#X connect 1 0 8 0;
#X connect 2 0 0 0;
#X connect 3 0 4 0;
#X connect 4 0 6 0;
#X connect 5 2 7 0;
#X connect 6 0 5 0;
#X connect 6 1 7 1;
#X connect 7 0 1 0;
#X connect 9 0 3 0;
#X restore 958 56 pd activateLogic;
#N canvas 687 416 450 300 ledControl 0;
#X obj 118 66 inlet;
#X obj 125 123 sel 1;
#X obj 166 173 s allTopUpperOff;
#X obj 125 144 t b b;
#X obj 110 272 noteout 3;
#X obj 110 195 pack \$1 127;
#X obj 110 217 unpack f f;
#X obj 110 245 * 2;
#X connect 0 0 1 0;
#X connect 1 0 3 0;
#X connect 3 0 5 0;
#X connect 3 1 2 0;
#X connect 5 0 6 0;
#X connect 6 0 7 0;
#X connect 6 1 4 1;
#X connect 7 0 4 0;
#X restore 958 85 pd ledControl;
#X obj 1090 137 gate;
#X floatatom 1152 117 5 0 0 0 - - -;
#X obj 1083 118 tgl 15 0 empty empty empty 17 7 0 10 -262144 -1 -1
0 1;
#X obj 1116 99 min 16;
#X obj 41 202 bypass;
#X obj 1338 142 r \$0-allOff;
#X obj 1150 219 s \$0-allOff;
#X obj 74 155 r \$0-bypass;
#X msg 1266 176 0;
#X obj 1266 200 s \$0-bypass;
#X obj 1117 195 sel 16;
#X obj 1090 168 t f f;
#X obj 1009 299 s \$0-bypass;
#X msg 1009 278 1;
#N canvas 543 259 450 300 noteInput 0;
#X obj 36 120 route 127;
#X obj 68 43 t b f;
#X obj 36 93 pack f f;
#X obj 55 17 notein 1;
#X obj 47 72 f;
#X obj 36 145 outlet;
#X connect 0 0 5 0;
#X connect 1 0 4 0;
#X connect 1 1 2 1;
#X connect 2 0 0 0;
#X connect 3 0 1 0;
#X connect 3 1 4 1;
#X connect 4 0 2 0;
#X restore 1036 18 pd noteInput;
#X obj 774 20 loadbang;
#X obj 816 69 s \$0-allOff;
#X obj 784 45 t b b;
#X obj 773 95 s \$0-bypass;
#X msg 773 66 1;
#X floatatom 1022 225 5 0 0 0 - - -;
#X obj 185 135 r \$0-looper;
#X obj 126 204 bypass;
#X obj 1346 200 s \$0-looper;
#X msg 1346 176 0;
#X obj 125 276 bypass;
#X msg 1090 282 1;
#X obj 1090 303 s \$0-looper;
#X obj 241 211 s loopLinkNumber;
#X obj 241 190 \$0;
#X obj 1288 37 == \$0;
#X obj 1288 16 r loopOff;
#X msg 1248 83 1;
#X msg 1312 83 0;
#X obj 1224 110 s \$0-bypass;
#X obj 1324 111 s \$0-looper;
#X obj 1288 58 sel 1;
#X obj 241 166 sel 1;
#X obj 126 230 throw~ topUpperChainLooperIn;
#X obj 126 253 r~ topUpperChainLooperOut;
#X obj 890 167 gate;
#X obj 883 148 tgl 15 0 empty empty empty 17 7 0 10 -262144 -1 -1 0
1;
#X obj 911 138 r buttonlistener;
#X obj 852 211 r \$0-looper;
#X obj 861 236 tgl 15 0 empty empty empty 17 7 0 10 -262144 -1 -1 0
1;
#X obj 869 266 gate;
#X obj 814 310 s topUpperChainLooperButton;
#X obj 952 166 bng 15 250 50 0 empty empty empty 17 7 0 10 -262144
-1 -1;
#X obj 320 308 feedbackDelay;
#X obj 1069 248 sel 0 1 2;
#X msg 1192 281 1;
#X obj 1192 303 s \$0-feedbackDelay;
#X obj 390 231 r \$0-feedbackDelay;
#X msg 1426 176 0;
#X obj 1426 200 s \$0-feedbackDelay;
#X connect 0 0 8 0;
#X connect 0 0 26 0;
#X connect 0 0 52 0;
#X connect 2 0 3 0;
#X connect 2 0 6 0;
#X connect 2 0 45 0;
#X connect 2 0 52 2;
#X connect 4 0 15 0;
#X connect 5 0 4 1;
#X connect 6 0 4 0;
#X connect 7 0 4 1;
#X connect 7 0 24 0;
#X connect 8 0 1 0;
#X connect 9 0 12 0;
#X connect 9 0 28 0;
#X connect 9 0 57 0;
#X connect 11 0 8 1;
#X connect 12 0 13 0;
#X connect 14 1 10 0;
#X connect 15 0 53 0;
#X connect 15 1 14 0;
#X connect 17 0 16 0;
#X connect 18 0 2 0;
#X connect 18 0 7 0;
#X connect 19 0 21 0;
#X connect 21 0 23 0;
#X connect 21 1 20 0;
#X connect 23 0 22 0;
#X connect 25 0 26 1;
#X connect 25 0 29 1;
#X connect 25 0 41 0;
#X connect 26 0 42 0;
#X connect 28 0 27 0;
#X connect 29 0 1 0;
#X connect 30 0 31 0;
#X connect 33 0 32 0;
#X connect 34 0 40 0;
#X connect 35 0 34 0;
#X connect 36 0 38 0;
#X connect 37 0 39 0;
#X connect 40 0 37 0;
#X connect 40 0 36 0;
#X connect 41 0 33 0;
#X connect 43 0 29 0;
#X connect 44 0 49 1;
#X connect 45 0 44 0;
#X connect 46 0 44 1;
#X connect 47 0 48 0;
#X connect 48 0 49 0;
#X connect 49 0 50 0;
#X connect 51 0 44 1;
#X connect 52 0 1 0;
#X connect 53 0 17 0;
#X connect 53 1 30 0;
#X connect 53 2 54 0;
#X connect 54 0 55 0;
#X connect 56 0 52 1;
#X connect 57 0 58 0;
