#N canvas 698 229 791 624 10;
#X obj 44 79 inlet~;
#X obj 355 125 until;
#X obj 355 145 f;
#X obj 355 166 + 1;
#X obj 357 84 t b b;
#X obj 355 189 t f f;
#X obj 393 315 *;
#X obj 393 355 *;
#X obj 355 467 tabwrite \$0-waveShape;
#X obj 355 397 -;
#X obj 393 376 / 3;
#X floatatom 435 243 5 0 0 0 - - -, f 5;
#X floatatom 440 390 5 0 0 0 - - -, f 5;
#X floatatom 440 296 5 0 0 0 - - -, f 5;
#X obj 384 284 t f f f;
#X obj 43 467 outlet~;
#X obj 44 165 *~ 4096;
#X obj 410 191 table \$0-waveShape 8192;
#X obj 352 244 / 4096;
#X obj 352 220 - 4096;
#X msg 415 133 -2;
#X msg 355 105 8194;
#X obj 44 188 +~ 4096;
#X obj 44 211 tabread4~ \$0-waveShape;
#X obj 357 56 loadbang;
#X text 464 55 based on Julius Smith's notes at ccrma.stanford.edu/~jos/pasp/Soft_Clipping.html
;
#X obj 180 245 inlet onOff;
#X obj 180 270 sel 0 1;
#X obj 180 404 switch~;
#X obj 90 354 line~;
#X msg 83 331 1 10;
#X msg 165 367 0;
#X msg 241 366 1;
#X msg 135 331 0 10;
#X obj 180 313 del 10;
#X obj 240 313 del 10;
#X obj 45 435 *~;
#X obj 43 134 *~;
#X msg 157 103 500;
#X connect 0 0 37 0;
#X connect 1 0 2 0;
#X connect 2 0 3 0;
#X connect 3 0 2 1;
#X connect 3 0 5 0;
#X connect 4 0 21 0;
#X connect 4 1 20 0;
#X connect 5 0 19 0;
#X connect 5 1 8 1;
#X connect 5 1 11 0;
#X connect 6 0 7 0;
#X connect 7 0 10 0;
#X connect 7 0 12 0;
#X connect 9 0 8 0;
#X connect 10 0 9 1;
#X connect 14 0 6 0;
#X connect 14 1 6 1;
#X connect 14 2 7 1;
#X connect 16 0 22 0;
#X connect 18 0 9 0;
#X connect 18 0 13 0;
#X connect 18 0 14 0;
#X connect 19 0 18 0;
#X connect 20 0 2 1;
#X connect 21 0 1 0;
#X connect 22 0 23 0;
#X connect 23 0 36 0;
#X connect 24 0 4 0;
#X connect 24 0 38 0;
#X connect 26 0 27 0;
#X connect 27 0 33 0;
#X connect 27 0 34 0;
#X connect 27 1 35 0;
#X connect 29 0 36 1;
#X connect 30 0 29 0;
#X connect 31 0 28 0;
#X connect 32 0 28 0;
#X connect 33 0 29 0;
#X connect 34 0 31 0;
#X connect 35 0 32 0;
#X connect 35 0 30 0;
#X connect 36 0 15 0;
#X connect 37 0 16 0;
#X connect 38 0 37 1;
