#N canvas 17 122 1118 624 10;
#X obj 44 19 inlet~;
#X obj 355 125 until;
#X obj 355 145 f;
#X obj 355 166 + 1;
#X obj 357 84 t b b;
#X obj 355 189 t f f;
#X obj 393 315 *;
#X obj 393 355 *;
#X obj 355 467 tabwrite \$0-waveShape;
#X obj 355 397 -;
#X obj 393 376 / 3;
#X floatatom 435 243 5 0 0 0 - - -, f 5;
#X floatatom 440 390 5 0 0 0 - - -, f 5;
#X floatatom 440 296 5 0 0 0 - - -, f 5;
#X obj 384 284 t f f f;
#X obj 43 467 outlet~;
#X obj 410 191 table \$0-waveShape 8192;
#X obj 352 244 / 4096;
#X obj 352 220 - 4096;
#X msg 415 133 -2;
#X msg 355 105 8194;
#X obj 44 241 tabread4~ \$0-waveShape;
#X obj 357 56 loadbang;
#X text 377 15 based on Julius Smith's notes at ccrma.stanford.edu/~jos/pasp/Soft_Clipping.html
;
#X obj 207 251 inlet onOff;
#X obj 200 290 sel 0 1;
#X obj 180 434 switch~;
#X obj 90 384 line~;
#X msg 83 361 1 10;
#X msg 165 397 0;
#X msg 261 386 1;
#X msg 135 361 0 10;
#X obj 200 333 del 10;
#X obj 260 333 del 10;
#X obj 45 435 *~;
#N canvas 293 144 972 550 gate 1;
#X obj 129 -28 inlet~;
#X obj 118 170 outlet~;
#X obj 65 133 *~;
#X obj 99 107 line;
#X obj 137 -3 env~ 512;
#X msg 98 83 1 10;
#X obj 132 51 sel 1;
#X obj 136 18 > 20;
#X msg 138 85 0 50;
#X connect 0 0 2 0;
#X connect 0 0 4 0;
#X connect 2 0 1 0;
#X connect 3 0 2 1;
#X connect 4 0 7 0;
#X connect 5 0 3 0;
#X connect 6 0 5 0;
#X connect 6 1 8 0;
#X connect 7 0 6 0;
#X connect 8 0 3 0;
#X restore 43 75 pd gate;
#X obj 75 186 *~ 4096;
#X obj 75 209 +~ 4096;
#X obj 67 126 *~;
#X obj 725 321 inlet active;
#X obj 623 456 ctlin 6 1;
#X obj 623 497 spigot;
#X obj 113 28 r \$0-preGain;
#X obj 623 560 s \$0-preGain;
#X obj 623 527 spigot;
#X obj 113 53 / 127;
#X msg 549 524 1;
#X obj 543 500 loadbang;
#X obj 767 387 sel 1;
#X obj 767 363 spigot;
#X obj 769 430 f;
#X obj 815 408 r \$0-preGain;
#X obj 769 456 ctlout 1 3;
#X obj 112 80 * 100;
#X obj 112 104 + 1;
#X connect 0 0 35 0;
#X connect 1 0 2 0;
#X connect 2 0 3 0;
#X connect 3 0 2 1;
#X connect 3 0 5 0;
#X connect 4 0 20 0;
#X connect 4 1 19 0;
#X connect 5 0 18 0;
#X connect 5 1 8 1;
#X connect 5 1 11 0;
#X connect 6 0 7 0;
#X connect 7 0 10 0;
#X connect 7 0 12 0;
#X connect 9 0 8 0;
#X connect 10 0 9 1;
#X connect 14 0 6 0;
#X connect 14 1 6 1;
#X connect 14 2 7 1;
#X connect 17 0 9 0;
#X connect 17 0 13 0;
#X connect 17 0 14 0;
#X connect 18 0 17 0;
#X connect 19 0 2 1;
#X connect 20 0 1 0;
#X connect 21 0 34 0;
#X connect 22 0 4 0;
#X connect 24 0 25 0;
#X connect 24 0 41 1;
#X connect 24 0 49 1;
#X connect 24 0 48 0;
#X connect 25 0 31 0;
#X connect 25 0 32 0;
#X connect 25 1 33 0;
#X connect 27 0 34 1;
#X connect 28 0 27 0;
#X connect 29 0 26 0;
#X connect 30 0 26 0;
#X connect 31 0 27 0;
#X connect 32 0 29 0;
#X connect 33 0 30 0;
#X connect 33 0 28 0;
#X connect 34 0 15 0;
#X connect 35 0 38 0;
#X connect 36 0 37 0;
#X connect 37 0 21 0;
#X connect 38 0 36 0;
#X connect 39 0 44 1;
#X connect 39 0 49 0;
#X connect 40 0 41 0;
#X connect 41 0 44 0;
#X connect 42 0 45 0;
#X connect 44 0 43 0;
#X connect 45 0 53 0;
#X connect 46 0 43 0;
#X connect 47 0 46 0;
#X connect 48 0 50 0;
#X connect 49 0 48 0;
#X connect 50 0 52 0;
#X connect 51 0 50 1;
#X connect 53 0 54 0;
#X connect 54 0 38 1;
