#N canvas 1 61 1585 813 10;
#X text 109 14 eq design from hardoff in the pd forums;
#X obj 10 5 inlet~;
#X obj 12 181 *~;
#X obj 30 100 r \$0-low;
#X obj 30 121 / 127;
#X obj 30 161 line;
#X msg 30 141 \$1 10;
#N canvas 1 61 727 430 E 0;
#X obj 66 25 inlet~;
#X obj 67 369 outlet~;
#X obj 193 369 outlet~;
#X obj 335 369 outlet~;
#X obj 66 80 biquad~ 1.86972 -0.872325 0.000650245 0.00130049 0.000650245
;
#X text 185 59 lo x3;
#X obj 66 100 biquad~ 1.86972 -0.872325 0.000650245 0.00130049 0.000650245
;
#X obj 66 120 biquad~ 1.86972 -0.872325 0.000650245 0.00130049 0.000650245
;
#X obj 194 172 biquad~ 1.36591 -0.385279 0.307361 0 -0.307361;
#X text 329 152 mid x3;
#X obj 194 192 biquad~ 1.36591 -0.385279 0.307361 0 -0.307361;
#X obj 194 212 biquad~ 1.36591 -0.385279 0.307361 0 -0.307361;
#X obj 336 263 biquad~ 1.63386 -0.729864 0.840931 -1.68186 0.840931
;
#X text 476 241 hi x2;
#X obj 336 283 biquad~ 1.63386 -0.729864 0.840931 -1.68186 0.840931
;
#X connect 0 0 4 0;
#X connect 0 0 8 0;
#X connect 0 0 12 0;
#X connect 4 0 6 0;
#X connect 6 0 7 0;
#X connect 7 0 1 0;
#X connect 8 0 10 0;
#X connect 10 0 11 0;
#X connect 11 0 2 0;
#X connect 12 0 14 0;
#X connect 14 0 3 0;
#X restore 11 61 pd E Q;
#X obj 80 181 *~;
#X obj 98 121 / 127;
#X obj 98 161 line;
#X msg 98 141 \$1 10;
#X obj 98 100 r \$0-mid;
#X obj 149 181 *~;
#X obj 167 121 / 127;
#X obj 167 161 line;
#X msg 167 141 \$1 10;
#X obj 167 100 r \$0-high;
#X obj 125 252 *~;
#X obj 126 274 outlet~;
#X obj 188 225 line~;
#X obj 242 147 sel 0 1;
#X obj 243 225 switch~;
#X obj 240 181 del 10;
#X msg 240 203 0;
#X obj 300 181 del 10;
#X msg 300 203 1;
#X obj 337 147 loadbang;
#X msg 188 183 0 10;
#X msg 198 203 1 10;
#X obj 547 5 inlet onOff;
#X obj 561 83 ctlin 6 1;
#X obj 561 105 spigot;
#X obj 561 127 spigot;
#X obj 686 5 inlet active;
#X obj 497 89 loadbang;
#X obj 561 195 spigot;
#X obj 561 217 spigot;
#X obj 497 179 loadbang;
#X obj 561 173 ctlin 7 1;
#X obj 561 285 spigot;
#X obj 561 307 spigot;
#X obj 497 269 loadbang;
#X obj 561 263 ctlin 8 1;
#X obj 709 164 spigot;
#X obj 709 186 sel 1;
#X obj 709 248 f;
#X obj 709 270 ctlout 1 3;
#X obj 819 164 spigot;
#X obj 819 186 sel 1;
#X obj 819 248 f;
#X obj 909 164 spigot;
#X obj 909 186 sel 1;
#X obj 909 248 f;
#X obj 1019 164 spigot;
#X obj 1019 186 sel 1;
#X obj 1019 248 f;
#X obj 819 270 ctlout 2 3;
#X obj 909 270 ctlout 3 3;
#X obj 1019 270 ctlout 4 3;
#X obj 561 149 s \$0-low;
#X obj 561 239 s \$0-mid;
#X obj 561 329 s \$0-high;
#X msg 1083 218 0;
#X obj 1083 177 loadbang;
#X obj 727 219 r \$0-low;
#X obj 837 219 r \$0-mid;
#X obj 927 219 r \$0-high;
#X obj 497 110 127;
#X obj 497 200 127;
#X obj 497 290 127;
#X connect 1 0 7 0;
#X connect 2 0 18 0;
#X connect 3 0 4 0;
#X connect 4 0 6 0;
#X connect 5 0 2 1;
#X connect 6 0 5 0;
#X connect 7 0 2 0;
#X connect 7 1 8 0;
#X connect 7 2 13 0;
#X connect 8 0 18 0;
#X connect 9 0 11 0;
#X connect 10 0 8 1;
#X connect 11 0 10 0;
#X connect 12 0 9 0;
#X connect 13 0 18 0;
#X connect 14 0 16 0;
#X connect 15 0 13 1;
#X connect 16 0 15 0;
#X connect 17 0 14 0;
#X connect 18 0 19 0;
#X connect 20 0 18 1;
#X connect 21 0 28 0;
#X connect 21 0 23 0;
#X connect 21 1 25 0;
#X connect 21 1 29 0;
#X connect 23 0 24 0;
#X connect 24 0 22 0;
#X connect 25 0 26 0;
#X connect 26 0 22 0;
#X connect 27 0 24 0;
#X connect 28 0 20 0;
#X connect 29 0 20 0;
#X connect 30 0 32 1;
#X connect 30 0 36 1;
#X connect 30 0 40 1;
#X connect 30 0 45 0;
#X connect 30 0 44 1;
#X connect 30 0 49 0;
#X connect 30 0 48 1;
#X connect 30 0 52 0;
#X connect 30 0 51 1;
#X connect 30 0 55 0;
#X connect 30 0 54 1;
#X connect 30 0 21 0;
#X connect 31 0 32 0;
#X connect 32 0 33 0;
#X connect 33 0 60 0;
#X connect 34 0 33 1;
#X connect 34 0 37 1;
#X connect 34 0 41 1;
#X connect 34 0 44 0;
#X connect 34 0 48 0;
#X connect 34 0 51 0;
#X connect 34 0 54 0;
#X connect 35 0 68 0;
#X connect 36 0 37 0;
#X connect 37 0 61 0;
#X connect 38 0 69 0;
#X connect 39 0 36 0;
#X connect 40 0 41 0;
#X connect 41 0 62 0;
#X connect 42 0 70 0;
#X connect 43 0 40 0;
#X connect 44 0 45 0;
#X connect 45 0 46 0;
#X connect 46 0 47 0;
#X connect 48 0 49 0;
#X connect 49 0 50 0;
#X connect 50 0 57 0;
#X connect 51 0 52 0;
#X connect 52 0 53 0;
#X connect 53 0 58 0;
#X connect 54 0 55 0;
#X connect 55 0 56 0;
#X connect 56 0 59 0;
#X connect 63 0 56 1;
#X connect 64 0 63 0;
#X connect 65 0 46 1;
#X connect 66 0 50 1;
#X connect 67 0 53 1;
#X connect 68 0 60 0;
#X connect 69 0 61 0;
#X connect 70 0 62 0;
