#N canvas 315 153 919 652 10;
#X obj 55 -40 inlet~;
#X obj 243 143 outlet~;
#X obj 485 -136 inlet onOff;
#X obj 400 -10 sel 0 1;
#X obj 400 124 switch~;
#X obj 310 74 line~;
#X msg 303 51 1 10;
#X msg 385 87 0;
#X msg 461 86 1;
#X obj 243 122 *~;
#X msg 355 51 0 10;
#X obj 400 33 del 10;
#X obj 460 33 del 10;
#X obj 559 -49 gate;
#X text 168 -72 delay time;
#X obj 210 55 *~ 0.5;
#X obj 334 -52 min 0.7;
#X obj 334 -33 max 0;
#X obj 334 -93 / 127;
#X obj 334 -72 * 0.7;
#X obj 193 -46 min 5000;
#X obj 193 -21 max 1;
#X text 327 -148 feedback level;
#X obj 334 -120 r \$0-feedbackLevel;
#X obj 559 45 s \$0-feedbackLevel;
#X obj 582 -81 ctlin 6 1;
#X obj 764 -14 sel 1;
#X obj 764 39 f;
#X obj 783 15 r \$0-feedbackLevel;
#X obj 764 69 ctlout 1 3;
#X obj 462 -84 loadbang;
#X msg 507 -42 64;
#X obj 208 8 delread~ \$0-delay 200;
#X obj 25 74 delwrite~ \$0-delay 800;
#X obj 688 -110 inlet active;
#X obj 567 -9 gate;
#X obj 763 -40 gate;
#X connect 0 0 33 0;
#X connect 0 0 9 0;
#X connect 2 0 3 0;
#X connect 2 0 13 0;
#X connect 2 0 36 0;
#X connect 2 0 26 0;
#X connect 3 0 10 0;
#X connect 3 0 11 0;
#X connect 3 1 12 0;
#X connect 5 0 9 1;
#X connect 6 0 5 0;
#X connect 7 0 4 0;
#X connect 8 0 4 0;
#X connect 9 0 1 0;
#X connect 10 0 5 0;
#X connect 11 0 7 0;
#X connect 12 0 8 0;
#X connect 12 0 6 0;
#X connect 13 0 35 1;
#X connect 15 0 33 0;
#X connect 16 0 17 0;
#X connect 17 0 15 1;
#X connect 18 0 19 0;
#X connect 19 0 16 0;
#X connect 20 0 21 0;
#X connect 21 0 32 0;
#X connect 23 0 18 0;
#X connect 25 0 13 1;
#X connect 26 0 27 0;
#X connect 27 0 29 0;
#X connect 28 0 27 1;
#X connect 30 0 31 0;
#X connect 31 0 24 0;
#X connect 32 0 15 0;
#X connect 32 0 9 0;
#X connect 34 0 35 0;
#X connect 34 0 36 1;
#X connect 35 0 24 0;
#X connect 36 0 26 0;
