#N canvas 1 61 1585 813 10;
#X obj 55 -40 inlet~;
#X obj 243 143 outlet~;
#X obj 490 -141 inlet onOff;
#X obj 400 -7 sel 0 1;
#X obj 310 74 line~;
#X msg 303 51 1 10;
#X msg 385 87 0;
#X msg 461 86 1;
#X obj 243 122 *~;
#X msg 355 51 0 10;
#X obj 400 33 del 10;
#X obj 460 33 del 10;
#X text 175 -105 delay time;
#X obj 19 91 *~ 0.5;
#X obj 334 -52 min 0.7;
#X obj 334 -33 max 0;
#X obj 334 -93 / 127;
#X obj 334 -72 * 0.7;
#X text 327 -148 feedback level;
#X obj 334 -120 r \$0-feedbackLevel;
#X obj 559 45 s \$0-feedbackLevel;
#X obj 582 -81 ctlin 6 1;
#X obj 764 -14 sel 1;
#X obj 764 39 f;
#X obj 783 15 r \$0-feedbackLevel;
#X obj 764 69 ctlout 1 3;
#X obj 462 -84 loadbang;
#X msg 507 -42 64;
#X obj 707 -117 inlet active;
#X obj 563 220 timer;
#X obj 563 177 tgl 15 0 empty empty empty 17 7 0 10 -262144 -1 -1 0
1;
#X obj 595 94 r buttonlistener;
#X obj 193 -67 r \$0-delaytime;
#X obj 193 -46 min 800;
#X obj 193 -21 max 10;
#X obj 563 243 s \$0-delaytime;
#X obj 563 197 sel 1 0;
#X obj 208 8 delread~ \$0-delay 200;
#X obj 425 61 loadbang;
#X obj 399 143 switch~;
#X obj 596 126 spigot;
#X obj 574 -47 spigot;
#X obj 763 -40 spigot;
#X obj 567 -9 spigot;
#X obj 565 151 spigot;
#X obj 18 123 delwrite~ \$0-delay 1000;
#X obj 934 -14 sel 1;
#X obj 934 39 f;
#X obj 933 -40 spigot;
#X msg 973 16 0;
#X obj 984 -16 loadbang;
#X obj 1064 -14 sel 1;
#X obj 1064 39 f;
#X obj 1063 -40 spigot;
#X msg 1103 16 0;
#X obj 1114 -16 loadbang;
#X obj 1184 -14 sel 1;
#X obj 1184 39 f;
#X obj 1183 -40 spigot;
#X msg 1223 16 0;
#X obj 1234 -16 loadbang;
#X obj 934 69 ctlout 2 3;
#X obj 1064 69 ctlout 3 3;
#X obj 1184 69 ctlout 4 3;
#X obj 84 55 line;
#X msg 84 32 \$1 10;
#X connect 0 0 8 0;
#X connect 0 0 13 0;
#X connect 2 0 3 0;
#X connect 2 0 22 0;
#X connect 2 0 40 1;
#X connect 2 0 41 1;
#X connect 2 0 42 1;
#X connect 2 0 46 0;
#X connect 2 0 51 0;
#X connect 2 0 56 0;
#X connect 2 0 48 1;
#X connect 2 0 53 1;
#X connect 2 0 58 1;
#X connect 3 0 9 0;
#X connect 3 0 10 0;
#X connect 3 1 11 0;
#X connect 4 0 8 1;
#X connect 5 0 4 0;
#X connect 6 0 39 0;
#X connect 7 0 39 0;
#X connect 8 0 1 0;
#X connect 9 0 4 0;
#X connect 10 0 6 0;
#X connect 11 0 7 0;
#X connect 11 0 5 0;
#X connect 13 0 45 0;
#X connect 14 0 15 0;
#X connect 15 0 65 0;
#X connect 16 0 17 0;
#X connect 17 0 14 0;
#X connect 19 0 16 0;
#X connect 21 0 41 0;
#X connect 22 0 23 0;
#X connect 23 0 25 0;
#X connect 24 0 23 1;
#X connect 26 0 27 0;
#X connect 27 0 20 0;
#X connect 28 0 42 0;
#X connect 28 0 43 1;
#X connect 28 0 44 1;
#X connect 28 0 48 0;
#X connect 28 0 53 0;
#X connect 28 0 58 0;
#X connect 29 0 35 0;
#X connect 30 0 36 0;
#X connect 31 0 40 0;
#X connect 32 0 33 0;
#X connect 33 0 34 0;
#X connect 34 0 37 0;
#X connect 36 0 29 0;
#X connect 36 1 29 1;
#X connect 37 0 13 0;
#X connect 37 0 8 0;
#X connect 38 0 6 0;
#X connect 40 0 44 0;
#X connect 41 0 43 0;
#X connect 42 0 22 0;
#X connect 43 0 20 0;
#X connect 44 0 30 0;
#X connect 46 0 47 0;
#X connect 47 0 61 0;
#X connect 48 0 46 0;
#X connect 49 0 47 1;
#X connect 50 0 49 0;
#X connect 51 0 52 0;
#X connect 52 0 62 0;
#X connect 53 0 51 0;
#X connect 54 0 52 1;
#X connect 55 0 54 0;
#X connect 56 0 57 0;
#X connect 57 0 63 0;
#X connect 58 0 56 0;
#X connect 59 0 57 1;
#X connect 60 0 59 0;
#X connect 64 0 13 1;
#X connect 65 0 64 0;
