#N canvas 801 61 799 814 10;
#X obj 35 -40 inlet~;
#X obj 223 143 outlet~;
#X obj 470 -141 inlet onOff;
#X obj 380 -7 sel 0 1;
#X obj 290 74 line~;
#X msg 283 51 1 10;
#X msg 365 87 0;
#X msg 441 86 1;
#X obj 223 122 *~;
#X msg 335 51 0 10;
#X obj 380 33 del 10;
#X obj 440 33 del 10;
#X obj 335 -43 max 0;
#X obj 335 -103 / 127;
#X obj 335 -129 r \$0-feedbackLevel;
#X obj 552 -51 ctlin 6 1;
#X obj 844 -14 sel 1;
#X obj 844 39 f;
#X obj 844 69 ctlout 1 3;
#X obj 467 -40 loadbang;
#X obj 811 -128 inlet active;
#X obj 405 61 loadbang;
#X obj 379 143 switch~;
#X obj 544 -17 spigot;
#X obj 843 -40 spigot;
#X obj 537 21 spigot;
#X obj 188 48 vd~ \$0-delay 1;
#X obj 190 5 *~;
#X obj 97 -158 / 127;
#X obj 207 -108 / 127;
#X msg 477 -12 3;
#X obj 994 -14 sel 1;
#X obj 994 39 f;
#X obj 993 -40 spigot;
#X obj 1144 -14 sel 1;
#X obj 1144 39 f;
#X obj 1143 -40 spigot;
#X obj 1163 15 r \$0-feedbackLevel;
#X obj 97 -180 r \$0-flangerRate;
#X obj 207 -130 r \$0-flangerDepth;
#X obj 529 75 s \$0-flangerRate;
#X obj 863 15 r \$0-flangerRate;
#X obj 1013 15 r \$0-flangerDepth;
#X obj 994 69 ctlout 2 3;
#X obj 1144 69 ctlout 3 3;
#X obj 527 120 loadbang;
#X obj 604 143 spigot;
#X obj 597 181 spigot;
#X obj 612 109 ctlin 7 1;
#X obj 589 235 s \$0-flangerDepth;
#X msg 537 148 50;
#X obj 554 280 loadbang;
#X obj 631 303 spigot;
#X obj 624 341 spigot;
#X msg 564 308 50;
#X obj 616 395 s \$0-feedbackLevel;
#X obj 678 -2 hsl 128 15 0 127 0 0 empty empty empty -2 -8 0 10 -262144
-1 -1 0 1;
#X obj 688 158 hsl 128 15 0 127 0 0 empty empty empty -2 -8 0 10 -262144
-1 -1 0 1;
#X obj 678 348 hsl 128 15 0 127 0 0 empty empty empty -2 -8 0 10 -262144
-1 -1 0 1;
#X obj 335 -62 min 0.8;
#X obj 335 -82 * 0.8;
#X obj 46 174 *~;
#X obj -1 61 *~ 1;
#X obj 97 -136 * 1;
#X obj 193 26 +~ 2;
#X obj 207 -86 * 2;
#X obj -2 203 delwrite~ \$0-delay 4;
#X obj 639 269 ctlin 8 1;
#X obj 1304 -14 sel 1;
#X obj 1304 39 f;
#X obj 1303 -40 spigot;
#X obj 1304 69 ctlout 3 4;
#X msg 1343 16 0;
#X obj 1354 -16 loadbang;
#X obj 97 -108 phasor~;
#X obj 98 -86 -~ 0.5;
#X obj 99 -66 abs~;
#X obj 98 -44 *~ 4;
#X obj 98 -22 -~ 1;
#X connect 0 0 8 0;
#X connect 0 0 62 0;
#X connect 2 0 3 0;
#X connect 2 0 16 0;
#X connect 2 0 23 1;
#X connect 2 0 24 1;
#X connect 2 0 33 1;
#X connect 2 0 31 0;
#X connect 2 0 36 1;
#X connect 2 0 34 0;
#X connect 2 0 46 1;
#X connect 2 0 52 1;
#X connect 2 0 70 1;
#X connect 2 0 68 0;
#X connect 3 0 9 0;
#X connect 3 0 10 0;
#X connect 3 1 11 0;
#X connect 4 0 8 1;
#X connect 5 0 4 0;
#X connect 6 0 22 0;
#X connect 7 0 22 0;
#X connect 8 0 1 0;
#X connect 8 0 61 0;
#X connect 9 0 4 0;
#X connect 10 0 6 0;
#X connect 11 0 7 0;
#X connect 11 0 5 0;
#X connect 12 0 61 1;
#X connect 13 0 60 0;
#X connect 14 0 13 0;
#X connect 15 0 23 0;
#X connect 16 0 17 0;
#X connect 17 0 18 0;
#X connect 19 0 30 0;
#X connect 20 0 24 0;
#X connect 20 0 25 1;
#X connect 20 0 33 0;
#X connect 20 0 36 0;
#X connect 20 0 47 1;
#X connect 20 0 53 1;
#X connect 20 0 70 0;
#X connect 21 0 6 0;
#X connect 23 0 25 0;
#X connect 24 0 16 0;
#X connect 25 0 40 0;
#X connect 26 0 8 0;
#X connect 27 0 64 0;
#X connect 28 0 63 0;
#X connect 29 0 65 0;
#X connect 30 0 40 0;
#X connect 31 0 32 0;
#X connect 32 0 43 0;
#X connect 33 0 31 0;
#X connect 34 0 35 0;
#X connect 35 0 44 0;
#X connect 36 0 34 0;
#X connect 37 0 35 1;
#X connect 38 0 28 0;
#X connect 39 0 29 0;
#X connect 41 0 17 1;
#X connect 42 0 32 1;
#X connect 45 0 50 0;
#X connect 46 0 47 0;
#X connect 47 0 49 0;
#X connect 48 0 46 0;
#X connect 50 0 49 0;
#X connect 51 0 54 0;
#X connect 52 0 53 0;
#X connect 53 0 55 0;
#X connect 54 0 55 0;
#X connect 56 0 40 0;
#X connect 57 0 49 0;
#X connect 58 0 55 0;
#X connect 59 0 12 0;
#X connect 60 0 59 0;
#X connect 61 0 66 0;
#X connect 62 0 66 0;
#X connect 63 0 74 0;
#X connect 64 0 26 0;
#X connect 65 0 27 1;
#X connect 67 0 52 0;
#X connect 68 0 69 0;
#X connect 69 0 71 0;
#X connect 70 0 68 0;
#X connect 72 0 69 1;
#X connect 73 0 72 0;
#X connect 74 0 75 0;
#X connect 75 0 76 0;
#X connect 76 0 77 0;
#X connect 77 0 78 0;
#X connect 78 0 27 0;
