#N canvas 1 74 1585 800 10;
#X text 246 37 grain duration (ms);
#X obj 289 128 tgl 15 0 empty empty empty 17 7 0 10 -262144 -1 -1 1
1;
#X obj 291 203 + 1;
#X obj 291 183 f -1;
#X obj 352 67 r \$0-interonset;
#X obj 65 127 *~ 1;
#X obj 281 99 loadbang;
#X obj 378 -76 loadbang;
#X obj 378 -54 del 100;
#X msg 378 -32 \; pd dsp 1;
#N canvas 1 424 1023 511 grain 0;
#X obj 238 385 outlet~;
#X obj 630 216 line~;
#X msg 630 189 512 \$1;
#X msg 685 175 0;
#X obj 630 159 t f b;
#X obj 631 127 max 1;
#X obj 631 101 + 10;
#X obj 561 -51 inlet bang;
#X obj 661 -91 r \$0-interonset;
#X obj 237 359 *~;
#X text 649 -120 sets max size of grain;
#X obj 631 25 f;
#X obj 631 78 / 1;
#X obj 723 -13 r \$0-grainSize;
#X text 709 -26 sets fraction of max time to occupy;
#X obj 723 67 * 10;
#X obj 723 7 - 127;
#X obj 723 27 * -1;
#X obj 723 47 / 127;
#X obj 236 245 inlet~ input;
#X obj 630 249 tabread~ \$0-hanning;
#X obj 661 -18 * 2;
#X obj 661 -69 / 127;
#X obj 661 -47 * 1000;
#X connect 1 0 20 0;
#X connect 2 0 1 0;
#X connect 3 0 1 0;
#X connect 4 0 2 0;
#X connect 4 1 3 0;
#X connect 5 0 4 0;
#X connect 6 0 5 0;
#X connect 7 0 11 0;
#X connect 8 0 22 0;
#X connect 9 0 0 0;
#X connect 11 0 12 0;
#X connect 12 0 6 0;
#X connect 13 0 16 0;
#X connect 15 0 12 1;
#X connect 16 0 17 0;
#X connect 17 0 18 0;
#X connect 18 0 15 0;
#X connect 19 0 9 0;
#X connect 20 0 9 1;
#X connect 21 0 11 1;
#X connect 22 0 23 0;
#X connect 23 0 21 0;
#X restore 114 421 pd grain;
#X obj 291 155 metro 80;
#X obj 212 272 random 100;
#X obj 320 249 t b f;
#X obj 244 338 f;
#X obj 213 314 sel 1;
#N canvas 0 50 294 377 hanning 0;
#X obj 38 -13 table \$0-hanning 512;
#X obj 80 325 tabwrite \$0-hanning;
#X obj 115 93 until;
#X obj 115 115 f;
#X obj 115 136 + 1;
#X msg 170 102 -1;
#X obj 80 233 cos;
#X obj 80 190 * 6.28319;
#X obj 80 212 / 511;
#X obj 115 160 t f f;
#X obj 80 275 abs;
#X obj 80 254 - 1;
#X obj 80 296 * 0.5;
#X msg 115 71 512;
#X obj 115 47 t b b;
#X obj 115 20 loadbang;
#X connect 2 0 3 0;
#X connect 3 0 4 0;
#X connect 4 0 3 1;
#X connect 4 0 9 0;
#X connect 5 0 3 1;
#X connect 6 0 11 0;
#X connect 7 0 8 0;
#X connect 8 0 6 0;
#X connect 9 0 7 0;
#X connect 9 1 1 1;
#X connect 10 0 12 0;
#X connect 11 0 10 0;
#X connect 12 0 1 0;
#X connect 13 0 2 0;
#X connect 14 0 13 0;
#X connect 14 1 5 0;
#X connect 15 0 14 0;
#X restore 537 -5 pd hanning;
#X text 823 73 one slider for wet/dry mix;
#X text 804 13 one for interonset time;
#X text 821 29 one for probability;
#X text 815 52 one for window size / duration;
#X obj 66 69 inlet~;
#X obj 273 656 outlet~;
#X obj 347 560 *~;
#X obj 686 83 inlet onOff;
#X obj 490 450 sel 0 1;
#X obj 490 544 switch~;
#X obj 400 534 line~;
#X msg 393 511 1 10;
#X msg 490 517 0;
#X msg 550 516 1;
#X msg 445 511 0 10;
#X obj 490 493 del 10;
#X obj 550 493 del 10;
#X obj 1226 97 inlet active;
#X obj 212 291 <;
#X obj 1084 376 sel 1;
#X obj 1084 429 f;
#X obj 1084 459 ctlout 1 3;
#X obj 1083 350 spigot;
#X obj 1212 376 sel 1;
#X obj 1212 429 f;
#X obj 1211 350 spigot;
#X obj 1347 376 sel 1;
#X obj 1347 429 f;
#X obj 1346 350 spigot;
#X obj 1212 459 ctlout 2 3;
#X obj 1347 459 ctlout 3 3;
#X obj 1467 376 sel 1;
#X obj 1467 429 f;
#X obj 1466 350 spigot;
#X obj 1467 459 ctlout 4 3;
#X obj 1103 405 r \$0-interonset;
#X obj 1231 405 r \$0-probability;
#X obj 1366 405 r \$0-grainSize;
#X obj 1488 406 r \$0-wetdry;
#X obj 752 195 ctlin 6 1;
#X obj 752 218 spigot;
#X obj 752 240 spigot;
#X obj 752 262 s \$0-interonset;
#X obj 752 308 spigot;
#X obj 752 330 spigot;
#X obj 752 352 s \$0-probability;
#X obj 752 285 ctlin 7 1;
#X obj 752 398 spigot;
#X obj 752 420 spigot;
#X obj 752 375 ctlin 8 1;
#X obj 752 442 s \$0-grainSize;
#X obj 752 488 spigot;
#X obj 752 510 spigot;
#X obj 752 465 ctlin 9 1;
#X obj 752 532 s \$0-wetdry;
#X obj 390 205 r \$0-probability;
#X obj 390 227 / 127;
#X obj 390 249 * 100;
#X obj 352 89 / 127;
#X obj 352 111 * 1000;
#X obj 352 133 + 10;
#X obj 272 635 *~;
#X obj 217 558 *~;
#N canvas 1 85 450 300 xfade 0;
#X obj 36 211 cos;
#X floatatom 36 132 5 0 0 0 - - -, f 5;
#X obj 127 211 cos;
#X obj 127 158 + 0.75;
#X obj 127 183 * 6.28319;
#X obj 36 183 * 6.28319;
#X obj 38 88 / 127;
#X obj 38 110 * 0.25;
#X obj 128 253 line;
#X msg 128 232 \$1 10;
#X obj 36 254 line;
#X msg 36 233 \$1 10;
#X obj 36 274 outlet;
#X obj 129 274 outlet;
#X obj 38 65 inlet;
#X connect 0 0 11 0;
#X connect 1 0 3 0;
#X connect 1 0 5 0;
#X connect 2 0 9 0;
#X connect 3 0 4 0;
#X connect 4 0 2 0;
#X connect 5 0 0 0;
#X connect 6 0 7 0;
#X connect 7 0 1 0;
#X connect 8 0 13 0;
#X connect 9 0 8 0;
#X connect 10 0 12 0;
#X connect 11 0 10 0;
#X connect 14 0 6 0;
#X restore 228 532 pd xfade;
#X obj 666 223 loadbang;
#X msg 666 245 64;
#X obj 666 273 loadbang;
#X msg 666 295 127;
#X obj 666 353 loadbang;
#X msg 666 375 64;
#X obj 666 433 loadbang;
#X msg 666 455 64;
#X obj 228 505 r \$0-wetdry;
#N canvas 497 201 922 585 delayReader 1;
#X obj 220 359 vd~ \$0-buffer;
#X obj 145 288 phasor~;
#X obj 144 421 *~;
#X obj 406 383 vd~ \$0-buffer;
#X obj 330 445 *~;
#X obj 332 323 wrap~;
#X obj 148 448 +~;
#X obj 145 175 * 0.05776;
#X obj 145 196 exp;
#X obj 145 217 - 1;
#X obj 145 240 * -1;
#X obj 329 299 +~ 0.5;
#X obj 145 260 / 0.4;
#X obj 219 328 *~ 400;
#X obj 405 351 *~ 400;
#X obj 219 92 random 3;
#X obj 219 115 sel 0 1 2;
#X msg 196 138 0;
#X msg 226 138 -12;
#X msg 256 138 12;
#X obj 219 65 inlet bang;
#X obj 147 478 outlet~;
#X obj 145 329 -~ 0.5;
#X obj 145 351 *~ 0.5;
#X obj 145 373 cos~;
#X obj 333 349 -~ 0.5;
#X obj 333 371 *~ 0.5;
#X obj 333 393 cos~;
#X connect 0 0 2 1;
#X connect 1 0 11 0;
#X connect 1 0 13 0;
#X connect 1 0 22 0;
#X connect 2 0 6 0;
#X connect 3 0 4 1;
#X connect 4 0 6 1;
#X connect 5 0 14 0;
#X connect 5 0 25 0;
#X connect 6 0 21 0;
#X connect 7 0 8 0;
#X connect 8 0 9 0;
#X connect 9 0 10 0;
#X connect 10 0 12 0;
#X connect 11 0 5 0;
#X connect 12 0 1 0;
#X connect 13 0 0 0;
#X connect 14 0 3 0;
#X connect 15 0 16 0;
#X connect 16 0 17 0;
#X connect 16 1 18 0;
#X connect 16 2 19 0;
#X connect 17 0 7 0;
#X connect 18 0 7 0;
#X connect 19 0 7 0;
#X connect 20 0 15 0;
#X connect 22 0 23 0;
#X connect 23 0 24 0;
#X connect 24 0 2 0;
#X connect 25 0 26 0;
#X connect 26 0 27 0;
#X connect 27 0 4 0;
#X restore 115 387 pd delayReader;
#X obj 203 356 t b;
#X obj 20 176 delwrite~ \$0-buffer 400;
#X obj 580 454 loadbang;
#X obj 244 359 sel 0 1;
#X obj 291 224 mod 2;
#N canvas 1 424 1023 511 grain 0;
#X obj 238 385 outlet~;
#X obj 630 216 line~;
#X msg 630 189 512 \$1;
#X msg 685 175 0;
#X obj 630 159 t f b;
#X obj 631 127 max 1;
#X obj 631 101 + 10;
#X obj 561 -51 inlet bang;
#X obj 661 -91 r \$0-interonset;
#X obj 237 359 *~;
#X text 649 -120 sets max size of grain;
#X obj 631 25 f;
#X obj 631 78 / 1;
#X obj 723 -13 r \$0-grainSize;
#X text 709 -26 sets fraction of max time to occupy;
#X obj 723 67 * 10;
#X obj 723 7 - 127;
#X obj 723 27 * -1;
#X obj 723 47 / 127;
#X obj 236 245 inlet~ input;
#X obj 630 249 tabread~ \$0-hanning;
#X obj 661 -18 * 2;
#X obj 661 -69 / 127;
#X obj 661 -47 * 1000;
#X connect 1 0 20 0;
#X connect 2 0 1 0;
#X connect 3 0 1 0;
#X connect 4 0 2 0;
#X connect 4 1 3 0;
#X connect 5 0 4 0;
#X connect 6 0 5 0;
#X connect 7 0 11 0;
#X connect 8 0 22 0;
#X connect 9 0 0 0;
#X connect 11 0 12 0;
#X connect 12 0 6 0;
#X connect 13 0 16 0;
#X connect 15 0 12 1;
#X connect 16 0 17 0;
#X connect 17 0 18 0;
#X connect 18 0 15 0;
#X connect 19 0 9 0;
#X connect 20 0 9 1;
#X connect 21 0 11 1;
#X connect 22 0 23 0;
#X connect 23 0 21 0;
#X restore 204 421 pd grain;
#X connect 1 0 11 0;
#X connect 2 0 3 1;
#X connect 2 0 95 0;
#X connect 3 0 2 0;
#X connect 4 0 75 0;
#X connect 5 0 79 0;
#X connect 5 0 92 0;
#X connect 6 0 1 0;
#X connect 7 0 8 0;
#X connect 8 0 9 0;
#X connect 10 0 23 0;
#X connect 11 0 3 0;
#X connect 12 0 35 0;
#X connect 13 0 12 0;
#X connect 13 1 14 1;
#X connect 14 0 91 0;
#X connect 14 0 94 0;
#X connect 15 0 14 0;
#X connect 21 0 5 0;
#X connect 23 0 78 0;
#X connect 24 0 25 0;
#X connect 24 0 39 1;
#X connect 24 0 42 1;
#X connect 24 0 45 1;
#X connect 24 0 50 1;
#X connect 24 0 36 0;
#X connect 24 0 40 0;
#X connect 24 0 43 0;
#X connect 24 0 48 0;
#X connect 24 0 57 1;
#X connect 24 0 60 1;
#X connect 24 0 64 1;
#X connect 24 0 68 1;
#X connect 25 0 31 0;
#X connect 25 0 32 0;
#X connect 25 1 33 0;
#X connect 27 0 78 1;
#X connect 28 0 27 0;
#X connect 29 0 26 0;
#X connect 30 0 26 0;
#X connect 31 0 27 0;
#X connect 32 0 29 0;
#X connect 33 0 30 0;
#X connect 33 0 28 0;
#X connect 34 0 39 0;
#X connect 34 0 42 0;
#X connect 34 0 45 0;
#X connect 34 0 50 0;
#X connect 34 0 58 1;
#X connect 34 0 61 1;
#X connect 34 0 65 1;
#X connect 34 0 69 1;
#X connect 35 0 15 0;
#X connect 36 0 37 0;
#X connect 37 0 38 0;
#X connect 39 0 36 0;
#X connect 40 0 41 0;
#X connect 41 0 46 0;
#X connect 42 0 40 0;
#X connect 43 0 44 0;
#X connect 44 0 47 0;
#X connect 45 0 43 0;
#X connect 48 0 49 0;
#X connect 49 0 51 0;
#X connect 50 0 48 0;
#X connect 52 0 37 1;
#X connect 53 0 41 1;
#X connect 54 0 44 1;
#X connect 55 0 49 1;
#X connect 56 0 57 0;
#X connect 57 0 58 0;
#X connect 58 0 59 0;
#X connect 60 0 61 0;
#X connect 61 0 62 0;
#X connect 63 0 60 0;
#X connect 64 0 65 0;
#X connect 65 0 67 0;
#X connect 66 0 64 0;
#X connect 68 0 69 0;
#X connect 69 0 71 0;
#X connect 70 0 68 0;
#X connect 72 0 73 0;
#X connect 73 0 74 0;
#X connect 74 0 35 1;
#X connect 75 0 76 0;
#X connect 76 0 77 0;
#X connect 77 0 11 1;
#X connect 78 0 22 0;
#X connect 79 0 78 0;
#X connect 80 0 79 1;
#X connect 80 1 23 1;
#X connect 81 0 82 0;
#X connect 82 0 59 0;
#X connect 83 0 84 0;
#X connect 84 0 62 0;
#X connect 85 0 86 0;
#X connect 86 0 67 0;
#X connect 87 0 88 0;
#X connect 88 0 71 0;
#X connect 89 0 80 0;
#X connect 90 0 10 0;
#X connect 90 0 96 0;
#X connect 91 0 90 0;
#X connect 93 0 29 0;
#X connect 94 0 10 1;
#X connect 94 1 96 1;
#X connect 95 0 13 0;
#X connect 96 0 23 0;
