#N canvas 0 61 1600 814 10;
#X text 246 37 grain duration (ms);
#X obj 289 128 tgl 15 0 empty empty empty 17 7 0 10 -262144 -1 -1 1
1;
#X obj 291 203 + 1;
#X obj 291 183 f -1;
#X obj 352 67 r \$0-interonset;
#X obj 15 137 *~ 1;
#X obj 281 99 loadbang;
#X obj 291 155 metro 80;
#X obj 212 272 random 100;
#X obj 320 249 t b f;
#X obj 244 338 f;
#X obj 213 314 sel 1;
#N canvas 0 50 294 377 hanning 0;
#X obj 38 -13 table \$0-hanning 512;
#X obj 80 325 tabwrite \$0-hanning;
#X obj 115 93 until;
#X obj 115 115 f;
#X obj 115 136 + 1;
#X msg 170 102 -1;
#X obj 80 233 cos;
#X obj 80 190 * 6.28319;
#X obj 80 212 / 511;
#X obj 115 160 t f f;
#X obj 80 275 abs;
#X obj 80 254 - 1;
#X obj 80 296 * 0.5;
#X msg 115 71 512;
#X obj 115 47 t b b;
#X obj 115 20 loadbang;
#X connect 2 0 3 0;
#X connect 3 0 4 0;
#X connect 4 0 3 1;
#X connect 4 0 9 0;
#X connect 5 0 3 1;
#X connect 6 0 11 0;
#X connect 7 0 8 0;
#X connect 8 0 6 0;
#X connect 9 0 7 0;
#X connect 9 1 1 1;
#X connect 10 0 12 0;
#X connect 11 0 10 0;
#X connect 12 0 1 0;
#X connect 13 0 2 0;
#X connect 14 0 13 0;
#X connect 14 1 5 0;
#X connect 15 0 14 0;
#X restore 537 -5 pd hanning;
#X text 823 73 one slider for wet/dry mix;
#X text 804 13 one for interonset time;
#X text 821 29 one for probability;
#X text 815 52 one for window size / duration;
#X obj 14 78 inlet~;
#X obj 273 656 outlet~;
#X obj 347 560 *~;
#X obj 686 83 inlet onOff;
#X obj 490 450 sel 0 1;
#X obj 490 544 switch~;
#X obj 400 534 line~;
#X msg 393 511 1 10;
#X msg 490 517 0;
#X msg 550 516 1;
#X msg 445 511 0 10;
#X obj 490 493 del 10;
#X obj 550 493 del 10;
#X obj 1228 82 inlet active;
#X obj 212 291 <;
#X obj 1084 376 sel 1;
#X obj 1084 429 f;
#X obj 1084 459 ctlout 1 3;
#X obj 1083 350 spigot;
#X obj 1212 376 sel 1;
#X obj 1212 429 f;
#X obj 1211 350 spigot;
#X obj 1347 376 sel 1;
#X obj 1347 429 f;
#X obj 1346 350 spigot;
#X obj 1212 459 ctlout 2 3;
#X obj 1347 459 ctlout 3 3;
#X obj 1467 376 sel 1;
#X obj 1467 429 f;
#X obj 1466 350 spigot;
#X obj 1467 459 ctlout 4 3;
#X obj 1103 405 r \$0-interonset;
#X obj 1231 405 r \$0-probability;
#X obj 1366 405 r \$0-grainSize;
#X obj 1488 406 r \$0-wetdry;
#X obj 752 195 ctlin 6 1;
#X obj 752 218 spigot;
#X obj 752 240 spigot;
#X obj 752 262 s \$0-interonset;
#X obj 752 308 spigot;
#X obj 752 330 spigot;
#X obj 752 352 s \$0-probability;
#X obj 752 285 ctlin 7 1;
#X obj 752 398 spigot;
#X obj 752 420 spigot;
#X obj 752 375 ctlin 8 1;
#X obj 752 442 s \$0-grainSize;
#X obj 752 488 spigot;
#X obj 752 510 spigot;
#X obj 752 465 ctlin 9 1;
#X obj 752 532 s \$0-wetdry;
#X obj 390 205 r \$0-probability;
#X obj 390 227 / 127;
#X obj 390 249 * 100;
#X obj 352 89 / 127;
#X obj 352 111 * 1000;
#X obj 352 133 + 10;
#X obj 272 635 *~;
#X obj 217 558 *~;
#N canvas 1 85 450 300 xfade 0;
#X obj 36 211 cos;
#X floatatom 36 132 5 0 0 0 - - -, f 5;
#X obj 127 211 cos;
#X obj 127 158 + 0.75;
#X obj 127 183 * 6.28319;
#X obj 36 183 * 6.28319;
#X obj 38 88 / 127;
#X obj 38 110 * 0.25;
#X obj 128 253 line;
#X msg 128 232 \$1 10;
#X obj 36 254 line;
#X msg 36 233 \$1 10;
#X obj 36 274 outlet;
#X obj 129 274 outlet;
#X obj 38 65 inlet;
#X connect 0 0 11 0;
#X connect 1 0 3 0;
#X connect 1 0 5 0;
#X connect 2 0 9 0;
#X connect 3 0 4 0;
#X connect 4 0 2 0;
#X connect 5 0 0 0;
#X connect 6 0 7 0;
#X connect 7 0 1 0;
#X connect 8 0 13 0;
#X connect 9 0 8 0;
#X connect 10 0 12 0;
#X connect 11 0 10 0;
#X connect 14 0 6 0;
#X restore 228 532 pd xfade;
#X obj 666 216 loadbang;
#X msg 666 245 64;
#X obj 666 273 loadbang;
#X msg 666 295 127;
#X obj 666 353 loadbang;
#X msg 666 375 64;
#X obj 666 433 loadbang;
#X msg 666 455 64;
#X obj 228 505 r \$0-wetdry;
#X obj 580 454 loadbang;
#X obj 244 359 sel 0 1;
#X obj 291 224 mod 2;
#N canvas 368 230 922 585 grain 1;
#X obj 172 23 random 3;
#X obj 172 46 sel 0 1 2;
#X obj 149 507 outlet~;
#X obj 149 364 line~;
#X msg 199 315 0;
#X obj 460 316 line~;
#X msg 460 289 512 \$1;
#X msg 515 275 0;
#X obj 460 259 t f b;
#X obj 461 227 max 1;
#X obj 300 -24 inlet bang;
#X obj 491 9 r \$0-interonset;
#X obj 461 125 f;
#X obj 461 178 / 1;
#X obj 553 67 r \$0-grainSize;
#X text 539 54 sets fraction of max time to occupy;
#X obj 553 147 * 10;
#X obj 553 87 - 127;
#X obj 553 107 * -1;
#X obj 553 127 / 127;
#X obj 491 82 * 2;
#X obj 491 31 / 127;
#X obj 149 262 t f b;
#X obj 149 105 *;
#X obj 300 1 t b b;
#X obj 150 456 *~;
#X msg 149 69 1;
#X obj 149 287 pack f f;
#X obj 272 259 * 44.1;
#X msg 149 315 \$2 \$1;
#X msg 179 69 2;
#X msg 209 70 0.5;
#X text 2 108 reverse grain;
#X obj 149 240 f;
#X obj 94 315 f;
#X obj 288 199 samplerate~;
#X obj 288 175 loadbang;
#X obj 274 237 / 1000;
#X obj 460 349 tabread4~ \$0-hanning;
#X obj 109 160 random 2;
#X obj 26 268 t f b;
#X obj 89 235 - 44100;
#X obj 89 257 * -1;
#X obj 26 307 pack f f;
#X msg 26 330 \$2 \$1;
#X obj 26 242 f;
#X obj 138 128 t b f f;
#X obj 109 181 sel 0 1;
#X obj 461 201 + 5;
#X obj 491 53 * 500;
#X obj 553 169 max 1;
#X obj 150 416 tabread4~ \$0-buffer1;
#X obj 224 222 / 2;
#X connect 0 0 1 0;
#X connect 1 0 26 0;
#X connect 1 1 30 0;
#X connect 1 2 31 0;
#X connect 3 0 51 0;
#X connect 4 0 3 0;
#X connect 5 0 38 0;
#X connect 6 0 5 0;
#X connect 7 0 5 0;
#X connect 8 0 6 0;
#X connect 8 1 7 0;
#X connect 9 0 8 0;
#X connect 10 0 24 0;
#X connect 11 0 21 0;
#X connect 12 0 13 0;
#X connect 13 0 48 0;
#X connect 14 0 17 0;
#X connect 16 0 50 0;
#X connect 17 0 18 0;
#X connect 18 0 19 0;
#X connect 19 0 16 0;
#X connect 20 0 12 1;
#X connect 21 0 49 0;
#X connect 22 0 27 0;
#X connect 22 1 4 0;
#X connect 23 0 46 0;
#X connect 24 0 0 0;
#X connect 24 1 12 0;
#X connect 25 0 2 0;
#X connect 26 0 23 0;
#X connect 27 0 29 0;
#X connect 28 0 27 1;
#X connect 28 0 41 0;
#X connect 29 0 3 0;
#X connect 30 0 23 0;
#X connect 31 0 23 0;
#X connect 33 0 22 0;
#X connect 34 0 3 0;
#X connect 35 0 34 1;
#X connect 35 0 37 0;
#X connect 35 0 52 0;
#X connect 36 0 35 0;
#X connect 37 0 28 1;
#X connect 38 0 25 1;
#X connect 39 0 47 0;
#X connect 40 0 43 0;
#X connect 40 1 34 0;
#X connect 41 0 42 0;
#X connect 42 0 43 1;
#X connect 43 0 44 0;
#X connect 44 0 3 0;
#X connect 45 0 40 0;
#X connect 46 0 39 0;
#X connect 46 1 45 1;
#X connect 46 2 33 1;
#X connect 47 0 45 0;
#X connect 47 1 33 0;
#X connect 48 0 9 0;
#X connect 48 0 23 1;
#X connect 48 0 28 0;
#X connect 49 0 20 0;
#X connect 50 0 13 1;
#X connect 51 0 25 0;
#X connect 52 0 41 0;
#X restore 202 444 pd grain;
#X obj 245 -39 pack f f;
#X obj 246 -76 \$0;
#X obj 294 -81 samplerate~;
#X obj 246 -126 loadbang;
#X obj 246 -104 t b b;
#X obj 57 109 tabwrite~ \$0-buffer1;
#X msg 245 -22 \; \$1-buffer1 resize \$2;
#X obj 294 -60 / 2;
#X obj 32 -69 table \$0-buffer1;
#X obj 32 -49 table \$0-buffer2;
#N canvas 444 212 922 585 grain 1;
#X obj 172 23 random 3;
#X obj 172 46 sel 0 1 2;
#X obj 149 507 outlet~;
#X obj 149 364 line~;
#X msg 199 315 0;
#X obj 460 316 line~;
#X msg 460 289 512 \$1;
#X msg 515 275 0;
#X obj 460 259 t f b;
#X obj 461 227 max 1;
#X obj 300 -24 inlet bang;
#X obj 491 9 r \$0-interonset;
#X obj 461 125 f;
#X obj 461 178 / 1;
#X obj 553 67 r \$0-grainSize;
#X text 539 54 sets fraction of max time to occupy;
#X obj 553 147 * 10;
#X obj 553 87 - 127;
#X obj 553 107 * -1;
#X obj 553 127 / 127;
#X obj 491 82 * 2;
#X obj 491 31 / 127;
#X obj 149 262 t f b;
#X obj 149 105 *;
#X obj 300 1 t b b;
#X obj 150 456 *~;
#X msg 149 69 1;
#X obj 149 287 pack f f;
#X obj 272 259 * 44.1;
#X msg 149 315 \$2 \$1;
#X msg 179 69 2;
#X msg 209 70 0.5;
#X text 2 108 reverse grain;
#X obj 149 240 f;
#X obj 94 315 f;
#X obj 288 199 samplerate~;
#X obj 288 175 loadbang;
#X obj 274 237 / 1000;
#X obj 460 349 tabread4~ \$0-hanning;
#X obj 109 160 random 2;
#X obj 26 268 t f b;
#X obj 89 235 - 44100;
#X obj 89 257 * -1;
#X obj 26 307 pack f f;
#X msg 26 330 \$2 \$1;
#X obj 26 242 f;
#X obj 138 128 t b f f;
#X obj 109 181 sel 0 1;
#X obj 461 201 + 5;
#X obj 491 53 * 500;
#X obj 553 169 max 1;
#X obj 150 416 tabread4~ \$0-buffer2;
#X obj 248 213 / 2;
#X connect 0 0 1 0;
#X connect 1 0 26 0;
#X connect 1 1 30 0;
#X connect 1 2 31 0;
#X connect 3 0 51 0;
#X connect 4 0 3 0;
#X connect 5 0 38 0;
#X connect 6 0 5 0;
#X connect 7 0 5 0;
#X connect 8 0 6 0;
#X connect 8 1 7 0;
#X connect 9 0 8 0;
#X connect 10 0 24 0;
#X connect 11 0 21 0;
#X connect 12 0 13 0;
#X connect 13 0 48 0;
#X connect 14 0 17 0;
#X connect 16 0 50 0;
#X connect 17 0 18 0;
#X connect 18 0 19 0;
#X connect 19 0 16 0;
#X connect 20 0 12 1;
#X connect 21 0 49 0;
#X connect 22 0 27 0;
#X connect 22 1 4 0;
#X connect 23 0 46 0;
#X connect 24 0 0 0;
#X connect 24 1 12 0;
#X connect 25 0 2 0;
#X connect 26 0 23 0;
#X connect 27 0 29 0;
#X connect 28 0 27 1;
#X connect 28 0 41 0;
#X connect 29 0 3 0;
#X connect 30 0 23 0;
#X connect 31 0 23 0;
#X connect 33 0 22 0;
#X connect 34 0 3 0;
#X connect 35 0 34 1;
#X connect 35 0 37 0;
#X connect 35 0 52 0;
#X connect 36 0 35 0;
#X connect 37 0 28 1;
#X connect 38 0 25 1;
#X connect 39 0 47 0;
#X connect 40 0 43 0;
#X connect 40 1 34 0;
#X connect 41 0 42 0;
#X connect 42 0 43 1;
#X connect 43 0 44 0;
#X connect 44 0 3 0;
#X connect 45 0 40 0;
#X connect 46 0 39 0;
#X connect 46 1 45 1;
#X connect 46 2 33 1;
#X connect 47 0 45 0;
#X connect 47 1 33 0;
#X connect 48 0 9 0;
#X connect 48 0 23 1;
#X connect 48 0 28 0;
#X connect 49 0 20 0;
#X connect 50 0 13 1;
#X connect 51 0 25 0;
#X connect 52 0 41 1;
#X restore 282 444 pd grain;
#X obj 57 129 tabwrite~ \$0-buffer2;
#X obj 85 53 r \$0-stopBuffer1;
#X obj 205 73 r \$0-stopBuffer2;
#X obj 67 27 metro 500;
#X obj 67 10 tgl 15 0 empty empty empty 17 7 0 10 -262144 -1 -1 0 1
;
#X msg 205 95 stop;
#X msg 85 75 stop;
#X obj 243 387 s \$0-stopBuffer1;
#X obj 67 -10 loadbang;
#X obj 283 407 s \$0-stopBuffer2;
#X connect 1 0 7 0;
#X connect 2 0 3 1;
#X connect 2 0 88 0;
#X connect 3 0 2 0;
#X connect 4 0 71 0;
#X connect 5 0 75 0;
#X connect 6 0 1 0;
#X connect 7 0 3 0;
#X connect 8 0 31 0;
#X connect 9 0 8 0;
#X connect 9 1 10 1;
#X connect 10 0 87 0;
#X connect 11 0 10 0;
#X connect 17 0 5 0;
#X connect 17 0 95 0;
#X connect 17 0 101 0;
#X connect 19 0 74 0;
#X connect 20 0 21 0;
#X connect 20 0 35 1;
#X connect 20 0 38 1;
#X connect 20 0 41 1;
#X connect 20 0 46 1;
#X connect 20 0 32 0;
#X connect 20 0 36 0;
#X connect 20 0 39 0;
#X connect 20 0 44 0;
#X connect 20 0 53 1;
#X connect 20 0 56 1;
#X connect 20 0 60 1;
#X connect 20 0 64 1;
#X connect 21 0 27 0;
#X connect 21 0 28 0;
#X connect 21 1 29 0;
#X connect 23 0 74 1;
#X connect 24 0 23 0;
#X connect 25 0 22 0;
#X connect 26 0 22 0;
#X connect 27 0 23 0;
#X connect 28 0 25 0;
#X connect 29 0 26 0;
#X connect 29 0 24 0;
#X connect 30 0 35 0;
#X connect 30 0 38 0;
#X connect 30 0 41 0;
#X connect 30 0 46 0;
#X connect 30 0 54 1;
#X connect 30 0 57 1;
#X connect 30 0 61 1;
#X connect 30 0 65 1;
#X connect 31 0 11 0;
#X connect 32 0 33 0;
#X connect 33 0 34 0;
#X connect 35 0 32 0;
#X connect 36 0 37 0;
#X connect 37 0 42 0;
#X connect 38 0 36 0;
#X connect 39 0 40 0;
#X connect 40 0 43 0;
#X connect 41 0 39 0;
#X connect 44 0 45 0;
#X connect 45 0 47 0;
#X connect 46 0 44 0;
#X connect 48 0 33 1;
#X connect 49 0 37 1;
#X connect 50 0 40 1;
#X connect 51 0 45 1;
#X connect 52 0 53 0;
#X connect 53 0 54 0;
#X connect 54 0 55 0;
#X connect 56 0 57 0;
#X connect 57 0 58 0;
#X connect 59 0 56 0;
#X connect 60 0 61 0;
#X connect 61 0 63 0;
#X connect 62 0 60 0;
#X connect 64 0 65 0;
#X connect 65 0 67 0;
#X connect 66 0 64 0;
#X connect 68 0 69 0;
#X connect 69 0 70 0;
#X connect 70 0 31 1;
#X connect 71 0 72 0;
#X connect 72 0 73 0;
#X connect 73 0 7 1;
#X connect 74 0 18 0;
#X connect 75 0 74 0;
#X connect 76 0 75 1;
#X connect 76 1 19 1;
#X connect 77 0 78 0;
#X connect 78 0 55 0;
#X connect 79 0 80 0;
#X connect 80 0 58 0;
#X connect 81 0 82 0;
#X connect 82 0 63 0;
#X connect 83 0 84 0;
#X connect 84 0 67 0;
#X connect 85 0 76 0;
#X connect 86 0 25 0;
#X connect 87 0 89 0;
#X connect 87 0 108 0;
#X connect 87 1 100 0;
#X connect 87 1 110 0;
#X connect 88 0 9 0;
#X connect 89 0 19 0;
#X connect 90 0 96 0;
#X connect 91 0 90 0;
#X connect 92 0 97 0;
#X connect 93 0 94 0;
#X connect 94 0 91 0;
#X connect 94 1 92 0;
#X connect 97 0 90 1;
#X connect 100 0 19 0;
#X connect 102 0 107 0;
#X connect 103 0 106 0;
#X connect 104 0 95 0;
#X connect 104 0 101 0;
#X connect 105 0 104 0;
#X connect 106 0 101 0;
#X connect 107 0 95 0;
#X connect 109 0 105 0;
