#N canvas 828 341 755 551 10;
#X obj 16 11 inlet~;
#X obj 158 515 outlet~;
#X obj 282 105 table \$0-looptable 1.92e+06;
#X obj 15 192 tabwrite~ \$0-looptable;
#X obj 159 318 tabplay~ \$0-looptable;
#X obj 159 34 tgl 15 0 empty empty empty 17 7 0 10 -262144 -1 -1 0
1;
#X obj 159 58 sel 0 1;
#X obj 195 204 timer;
#X obj 176 263 del;
#X msg 185 165 stop;
#X obj 36 227 r \$0-retrigger;
#X obj 176 292 s \$0-retrigger;
#X obj 159 140 t b b b b;
#X obj 178 83 t b b;
#X text 250 11 recording when toggle is one \, playing back when toggle
is zero;
#X obj 160 437 *~;
#X obj 182 414 line~;
#X msg 272 389 0 100;
#X obj 272 365 loadbang;
#X obj 252 58 s \$0-fader;
#X obj 213 340 r \$0-fader;
#X msg 213 383 1 10;
#X obj 213 361 sel 0 1;
#X obj 159 11 inlet bang;
#X obj 390 423 del 100;
#X obj 390 375 inlet onOff;
#X obj 390 400 sel 0 1;
#X obj 390 514 switch~;
#X obj 159 481 *~;
#X msg 345 441 0 100;
#X obj 300 464 line~;
#X msg 293 441 1 10;
#X msg 375 477 0;
#X msg 451 476 1;
#X connect 0 0 3 0;
#X connect 4 0 15 0;
#X connect 5 0 6 0;
#X connect 5 0 19 0;
#X connect 6 0 12 0;
#X connect 6 1 13 0;
#X connect 7 0 8 1;
#X connect 8 0 4 0;
#X connect 8 0 11 0;
#X connect 9 0 3 0;
#X connect 10 0 8 0;
#X connect 12 0 4 0;
#X connect 12 1 8 0;
#X connect 12 2 9 0;
#X connect 12 3 7 1;
#X connect 13 0 3 0;
#X connect 13 1 7 0;
#X connect 15 0 28 0;
#X connect 16 0 15 1;
#X connect 17 0 16 0;
#X connect 18 0 17 0;
#X connect 20 0 22 0;
#X connect 21 0 16 0;
#X connect 22 0 21 0;
#X connect 22 1 17 0;
#X connect 23 0 5 0;
#X connect 24 0 32 0;
#X connect 25 0 26 0;
#X connect 26 0 24 0;
#X connect 26 0 29 0;
#X connect 26 1 31 0;
#X connect 26 1 33 0;
#X connect 28 0 1 0;
#X connect 29 0 30 0;
#X connect 30 0 28 1;
#X connect 31 0 30 0;
#X connect 32 0 27 0;
#X connect 33 0 27 0;
