#N canvas 649 310 610 345 10;
#X obj 202 314 dac~;
#X obj 97 5 buttonlistener;
#X obj 67 58 adc~;
#X obj 379 -1 loadbang;
#X msg 379 44 \; pd dsp 1;
#X obj 379 22 delay 100;
#X obj 189 25 notein;
#X obj 189 51 stripnote;
#X obj 171 75 f;
#N canvas 907 193 450 300 topRow 1;
#X obj 85 41 inlet~;
#X obj 77 129 throw~ master;
#N canvas 213 272 450 300 upperChain 1;
#X obj 111 22 inlet~;
#X obj 111 160 outlet~;
#X obj 161 95 looper;
#X obj 219 245 s allTopUpperOff;
#X obj 219 221 bng 15 250 50 0 empty empty empty 17 7 0 10 -262144
-1 -1;
#X obj 177 67 bng 15 250 50 0 empty empty empty 17 7 0 10 -262144 -1
-1;
#X obj 205 63 tgl 15 0 empty empty empty 17 7 0 10 -262144 -1 -1 0
1;
#N canvas 0 0 450 300 link1 1;
#X obj 161 36 inlet~;
#X obj 158 195 outlet~;
#X obj 51 134 s~;
#X restore 290 83 pd link1;
#N canvas 0 0 450 300 link2 0;
#X obj 161 36 inlet~;
#X obj 158 195 outlet~;
#X obj 51 134 s~;
#X restore 290 104 pd link2;
#N canvas 0 0 450 300 link3 0;
#X obj 161 36 inlet~;
#X obj 158 195 outlet~;
#X obj 51 134 s~;
#X restore 290 126 pd link3;
#N canvas 0 0 450 300 link4 0;
#X obj 161 36 inlet~;
#X obj 158 195 outlet~;
#X obj 51 134 s~;
#X restore 290 147 pd link4;
#N canvas 0 0 450 300 link5 0;
#X obj 161 36 inlet~;
#X obj 158 195 outlet~;
#X obj 51 134 s~;
#X restore 291 168 pd link5;
#N canvas 0 0 450 300 link6 0;
#X obj 161 36 inlet~;
#X obj 158 195 outlet~;
#X obj 51 134 s~;
#X restore 291 188 pd link6;
#X text 202 10 each chain has 8 "links \, " each link can have 1 effect
registered to it.;
#N canvas 197 366 450 300 otherEffect 0;
#X obj 287 63 inlet~;
#X obj 268 236 outlet~;
#X obj 117 106 switch~;
#X msg 119 83 0;
#X obj 119 11 r allTopUpperOff;
#X obj 113 54 del 100;
#X obj 268 212 *~;
#X obj 307 180 line~;
#X msg 310 150 1 10;
#X msg 365 152 0 100;
#X msg 81 84 1;
#X connect 3 0 2 0;
#X connect 4 0 5 0;
#X connect 4 0 9 0;
#X connect 5 0 3 0;
#X connect 6 0 1 0;
#X connect 7 0 6 1;
#X connect 8 0 7 0;
#X connect 9 0 7 0;
#X connect 10 0 2 0;
#X restore 53 91 pd otherEffect;
#X connect 0 0 7 0;
#X connect 2 0 1 0;
#X connect 4 0 3 0;
#X connect 5 0 2 1;
#X connect 6 0 2 2;
#X connect 7 0 8 0;
#X connect 8 0 9 0;
#X connect 9 0 10 0;
#X connect 10 0 11 0;
#X connect 11 0 12 0;
#X restore 40 80 pd upperChain;
#X connect 0 0 2 0;
#X connect 2 0 1 0;
#X restore 32 130 pd topRow;
#X obj 205 263 catch~ master;
#X obj 205 289 *~ 1;
#X obj 93 179 looper;
#X connect 1 0 8 0;
#X connect 2 0 9 0;
#X connect 2 0 12 0;
#X connect 3 0 5 0;
#X connect 5 0 4 0;
#X connect 6 0 7 0;
#X connect 6 1 7 1;
#X connect 7 0 8 1;
#X connect 10 0 11 0;
#X connect 11 0 0 0;
#X connect 11 0 0 1;
