#N canvas 757 293 610 345 10;
#X obj 202 314 dac~;
#X obj 194 13 buttonlistener;
#X obj 379 -1 loadbang;
#X msg 379 44 \; pd dsp 1;
#X obj 205 263 catch~ master;
#X obj 205 289 *~ 1;
#X obj 194 36 s buttonlistener;
#X obj 379 22 delay 100;
#N canvas 1 93 1377 697 ledControls 0;
#X obj 132 112 until;
#X obj 132 134 f;
#X obj 131 263 noteout 3;
#X obj 131 203 pack f 0;
#X obj 131 243 * 2;
#X obj 131 223 unpack f f;
#X obj 132 159 + 1;
#X msg 179 106 -1;
#X obj 132 64 t b b;
#X obj 355 43 r allFXLightsOff;
#X obj 355 112 until;
#X obj 355 134 f;
#X obj 354 263 noteout 3;
#X obj 354 203 pack f 0;
#X obj 354 243 * 2;
#X obj 354 223 unpack f f;
#X obj 355 159 + 1;
#X msg 402 106 -1;
#X obj 355 64 t b b;
#X msg 355 89 16;
#X obj 354 182 + 0;
#X obj 131 39 r allChainLightsOff;
#X msg 132 89 32;
#X obj 131 182 + 16;
#X connect 0 0 1 0;
#X connect 1 0 6 0;
#X connect 3 0 5 0;
#X connect 4 0 2 0;
#X connect 5 0 4 0;
#X connect 5 1 2 1;
#X connect 6 0 1 1;
#X connect 6 0 23 0;
#X connect 7 0 1 1;
#X connect 8 0 22 0;
#X connect 8 1 7 0;
#X connect 9 0 18 0;
#X connect 10 0 11 0;
#X connect 11 0 16 0;
#X connect 13 0 15 0;
#X connect 14 0 12 0;
#X connect 15 0 14 0;
#X connect 15 1 12 1;
#X connect 16 0 11 1;
#X connect 16 0 20 0;
#X connect 17 0 11 1;
#X connect 18 0 19 0;
#X connect 18 1 17 0;
#X connect 19 0 10 0;
#X connect 20 0 13 0;
#X connect 21 0 8 0;
#X connect 22 0 0 0;
#X connect 23 0 3 0;
#X restore 396 122 pd ledControls;
#X obj 185 202 topUpperChain;
#X obj 185 228 topLowerChain;
#X obj 287 202 bottomUpperChain;
#X obj 287 228 bottomLowerChain;
#X obj 255 161 adc~;
#X connect 1 0 6 0;
#X connect 2 0 7 0;
#X connect 4 0 5 0;
#X connect 5 0 0 0;
#X connect 5 0 0 1;
#X connect 7 0 3 0;
#X connect 13 0 9 0;
#X connect 13 0 10 0;
#X connect 13 0 11 0;
#X connect 13 0 12 0;
