#N canvas 771 237 610 345 10;
#X obj 202 314 dac~;
#X obj 194 13 buttonlistener;
#X obj 71 127 adc~;
#X obj 379 -1 loadbang;
#X msg 379 44 \; pd dsp 1;
#X obj 205 263 catch~ master;
#X obj 205 289 *~ 1;
#N canvas 976 105 450 300 topFXRow 1;
#X obj 85 41 inlet~;
#N canvas 137 153 1332 615 upperChain 1;
#X obj 111 22 inlet~;
#X text 202 10 each chain has 8 "links \, " each link can have 1 effect
registered to it.;
#N canvas 1 61 450 300 ledControls 0;
#X obj 131 39 r allTopUpperOff;
#X msg 132 89 8;
#X obj 132 112 until;
#X obj 132 134 f;
#X obj 131 263 noteout 3;
#X obj 131 203 pack f 0;
#X obj 131 243 * 2;
#X obj 131 223 unpack f f;
#X obj 132 159 + 1;
#X msg 179 106 -1;
#X obj 132 64 t b b;
#X obj 131 182 + 40;
#X connect 0 0 10 0;
#X connect 1 0 2 0;
#X connect 2 0 3 0;
#X connect 3 0 8 0;
#X connect 5 0 7 0;
#X connect 6 0 4 0;
#X connect 7 0 6 0;
#X connect 7 1 4 1;
#X connect 8 0 3 1;
#X connect 8 0 11 0;
#X connect 9 0 3 1;
#X connect 10 0 1 0;
#X connect 10 1 9 0;
#X connect 11 0 5 0;
#X restore 398 52 pd ledControls;
#X obj 234 229 throw~ master;
#X text 42 300 should throw some volume + solo/mute controls here use
horizontal sliders;
#X obj 236 59 chainLink 40;
#X obj 543 352 looper;
#X text 374 85 one looper per chain for now... it's a huge memory hog
;
#X obj 881 167 r loopLinkNumber;
#X obj 881 218 f 0;
#X obj 881 189 t f b;
#X obj 881 398 s loopOff;
#X obj 544 328 catch~ topUpperChainLooperIn;
#X obj 542 402 s~ topUpperChainLooperOut;
#X obj 851 280 ==;
#X text 876 138 switches last loop to bypass (if there was one in use)
ignores repeated presses of loop button;
#X obj 851 347 tgl 15 0 empty empty empty 17 7 0 10 -262144 -1 -1 0
1;
#X obj 851 302 - 1;
#X obj 851 324 * -1;
#X obj 923 306 f;
#X obj 852 245 t b f;
#X obj 576 290 r topUpperChainLooperButton;
#X obj 235 204 chainLink 47;
#X obj 235 164 chainLink 45;
#X obj 235 80 chainLink 41;
#X obj 235 101 chainLink 42;
#X obj 235 124 chainLink 43;
#X obj 235 144 chainLink 44;
#X obj 235 184 chainLink 46;
#X obj 883 369 spigot;
#X connect 0 0 5 0;
#X connect 5 0 24 0;
#X connect 6 0 13 0;
#X connect 8 0 10 0;
#X connect 9 0 19 1;
#X connect 9 0 14 1;
#X connect 10 0 9 1;
#X connect 10 0 20 0;
#X connect 10 1 9 0;
#X connect 12 0 6 0;
#X connect 14 0 17 0;
#X connect 16 0 29 1;
#X connect 17 0 18 0;
#X connect 18 0 16 0;
#X connect 19 0 29 0;
#X connect 20 0 19 0;
#X connect 20 1 14 0;
#X connect 21 0 6 1;
#X connect 22 0 3 0;
#X connect 23 0 28 0;
#X connect 24 0 25 0;
#X connect 25 0 26 0;
#X connect 26 0 27 0;
#X connect 27 0 23 0;
#X connect 28 0 22 0;
#X connect 29 0 11 0;
#X restore 85 72 pd upperChain;
#X connect 0 0 1 0;
#X restore 71 174 pd topFXRow;
#X obj 194 46 s buttonlistener;
#X obj 71 151 *~ 1;
#X obj 379 22 delay 100;
#X connect 1 0 8 0;
#X connect 2 0 9 0;
#X connect 3 0 10 0;
#X connect 5 0 6 0;
#X connect 6 0 0 0;
#X connect 6 0 0 1;
#X connect 9 0 7 0;
#X connect 10 0 4 0;
