#N canvas 761 277 610 345 10;
#X obj 202 314 dac~;
#X obj 194 13 buttonlistener;
#X obj 71 127 adc~;
#X obj 379 -1 loadbang;
#X msg 379 44 \; pd dsp 1;
#X obj 205 263 catch~ master;
#X obj 205 289 *~ 1;
#N canvas 966 145 450 300 topFXRow 1;
#X obj 85 41 inlet~;
#N canvas 106 259 1332 615 topUpperChain 0;
#X obj 111 22 inlet~;
#X text 202 10 each chain has 8 "links \, " each link can have 1 effect
registered to it.;
#N canvas 1 93 606 343 ledControls 0;
#X obj 131 39 r allTopUpperOff;
#X msg 132 89 8;
#X obj 132 112 until;
#X obj 132 134 f;
#X obj 131 263 noteout 3;
#X obj 131 203 pack f 0;
#X obj 131 243 * 2;
#X obj 131 223 unpack f f;
#X obj 132 159 + 1;
#X msg 179 106 -1;
#X obj 132 64 t b b;
#X obj 131 182 + 40;
#X obj 355 43 r allFXLightsOff;
#X obj 355 112 until;
#X obj 355 134 f;
#X obj 354 263 noteout 3;
#X obj 354 203 pack f 0;
#X obj 354 243 * 2;
#X obj 354 223 unpack f f;
#X obj 355 159 + 1;
#X msg 402 106 -1;
#X obj 355 64 t b b;
#X msg 355 89 16;
#X obj 354 182 + 0;
#X connect 0 0 10 0;
#X connect 1 0 2 0;
#X connect 2 0 3 0;
#X connect 3 0 8 0;
#X connect 5 0 7 0;
#X connect 6 0 4 0;
#X connect 7 0 6 0;
#X connect 7 1 4 1;
#X connect 8 0 3 1;
#X connect 8 0 11 0;
#X connect 9 0 3 1;
#X connect 10 0 1 0;
#X connect 10 1 9 0;
#X connect 11 0 5 0;
#X connect 12 0 21 0;
#X connect 13 0 14 0;
#X connect 14 0 19 0;
#X connect 16 0 18 0;
#X connect 17 0 15 0;
#X connect 18 0 17 0;
#X connect 18 1 15 1;
#X connect 19 0 14 1;
#X connect 19 0 23 0;
#X connect 20 0 14 1;
#X connect 21 0 22 0;
#X connect 21 1 20 0;
#X connect 22 0 13 0;
#X connect 23 0 16 0;
#X restore 398 52 pd ledControls;
#X obj 234 229 throw~ master;
#X text 42 300 should throw some volume + solo/mute controls here use
horizontal sliders;
#X obj 543 352 looper;
#X text 374 85 one looper per chain for now... it's a huge memory hog
;
#X obj 881 218 f 0;
#X obj 881 189 t f b;
#X obj 544 328 catch~ topUpperChainLooperIn;
#X obj 542 402 s~ topUpperChainLooperOut;
#X obj 851 280 ==;
#X text 876 138 switches last loop to bypass (if there was one in use)
ignores repeated presses of loop button;
#X obj 851 347 tgl 15 0 empty empty empty 17 7 0 10 -262144 -1 -1 0
1;
#X obj 851 302 - 1;
#X obj 851 324 * -1;
#X obj 923 306 f;
#X obj 852 245 t b f;
#X obj 576 290 r topUpperChainLooperButton;
#X obj 883 369 spigot;
#X obj 236 59 topUpperChainLink 40;
#X obj 881 167 r topUpperloopLinkNumber;
#X obj 881 398 s topUpperLoopOff;
#X obj 235 80 topUpperChainLink 41;
#X obj 235 101 topUpperChainLink 42;
#X obj 235 124 topUpperChainLink 43;
#X obj 235 144 topUpperChainLink 44;
#X obj 235 164 topUpperChainLink 45;
#X obj 235 184 topUpperChainLink 46;
#X obj 235 204 topUpperChainLink 47;
#X connect 0 0 20 0;
#X connect 5 0 10 0;
#X connect 7 0 16 1;
#X connect 7 0 11 1;
#X connect 8 0 7 1;
#X connect 8 0 17 0;
#X connect 8 1 7 0;
#X connect 9 0 5 0;
#X connect 11 0 14 0;
#X connect 13 0 19 1;
#X connect 14 0 15 0;
#X connect 15 0 13 0;
#X connect 16 0 19 0;
#X connect 17 0 16 0;
#X connect 17 1 11 0;
#X connect 18 0 5 1;
#X connect 19 0 22 0;
#X connect 20 0 23 0;
#X connect 21 0 8 0;
#X connect 23 0 24 0;
#X connect 24 0 25 0;
#X connect 25 0 26 0;
#X connect 26 0 27 0;
#X connect 27 0 28 0;
#X connect 28 0 29 0;
#X connect 29 0 3 0;
#X restore 85 72 pd topUpperChain;
#N canvas 267 170 1332 615 bottomUpperChain 0;
#X obj 111 22 inlet~;
#X text 202 10 each chain has 8 "links \, " each link can have 1 effect
registered to it.;
#N canvas 765 249 606 343 ledControls 0;
#X msg 132 89 8;
#X obj 132 112 until;
#X obj 132 134 f;
#X obj 131 263 noteout 3;
#X obj 131 203 pack f 0;
#X obj 131 243 * 2;
#X obj 131 223 unpack f f;
#X obj 132 159 + 1;
#X msg 179 106 -1;
#X obj 132 64 t b b;
#X obj 355 43 r allFXLightsOff;
#X obj 355 112 until;
#X obj 355 134 f;
#X obj 354 263 noteout 3;
#X obj 354 203 pack f 0;
#X obj 354 243 * 2;
#X obj 354 223 unpack f f;
#X obj 355 159 + 1;
#X msg 402 106 -1;
#X obj 355 64 t b b;
#X msg 355 89 16;
#X obj 354 182 + 0;
#X obj 131 182 + 32;
#X obj 131 39 r allBottomUpperOff;
#X connect 0 0 1 0;
#X connect 1 0 2 0;
#X connect 2 0 7 0;
#X connect 4 0 6 0;
#X connect 5 0 3 0;
#X connect 6 0 5 0;
#X connect 6 1 3 1;
#X connect 7 0 2 1;
#X connect 7 0 22 0;
#X connect 8 0 2 1;
#X connect 9 0 0 0;
#X connect 9 1 8 0;
#X connect 10 0 19 0;
#X connect 11 0 12 0;
#X connect 12 0 17 0;
#X connect 14 0 16 0;
#X connect 15 0 13 0;
#X connect 16 0 15 0;
#X connect 16 1 13 1;
#X connect 17 0 12 1;
#X connect 17 0 21 0;
#X connect 18 0 12 1;
#X connect 19 0 20 0;
#X connect 19 1 18 0;
#X connect 20 0 11 0;
#X connect 21 0 14 0;
#X connect 22 0 4 0;
#X connect 23 0 9 0;
#X restore 424 51 pd ledControls;
#X obj 234 229 throw~ master;
#X text 42 300 should throw some volume + solo/mute controls here use
horizontal sliders;
#X obj 543 352 looper;
#X text 414 85 one looper per chain for now... it's a huge memory hog
;
#X obj 881 218 f 0;
#X obj 881 189 t f b;
#X obj 851 280 ==;
#X text 876 138 switches last loop to bypass (if there was one in use)
ignores repeated presses of loop button;
#X obj 851 347 tgl 15 0 empty empty empty 17 7 0 10 -262144 -1 -1 0
1;
#X obj 851 302 - 1;
#X obj 851 324 * -1;
#X obj 923 306 f;
#X obj 852 245 t b f;
#X obj 883 369 spigot;
#X obj 576 290 r bottomUpperChainLooperButton;
#X obj 544 328 catch~ bottomUpperChainLooperIn;
#X obj 542 402 s~ bottomUpperChainLooperOut;
#X obj 881 398 s bottomUpperLoopOff;
#X obj 236 57 bottomUpperChainLink 32;
#X obj 881 167 r bottomUpperLoopLinkNumber;
#X obj 235 80 bottomUpperChainLink 33;
#X obj 235 101 bottomUpperChainLink 34;
#X obj 235 124 bottomUpperChainLink 35;
#X obj 235 144 bottomUpperChainLink 36;
#X obj 235 164 bottomUpperChainLink 37;
#X obj 235 184 bottomUpperChainLink 38;
#X obj 235 204 bottomUpperChainLink 39;
#X connect 0 0 21 0;
#X connect 5 0 19 0;
#X connect 7 0 14 1;
#X connect 7 0 9 1;
#X connect 8 0 7 1;
#X connect 8 0 15 0;
#X connect 8 1 7 0;
#X connect 9 0 12 0;
#X connect 11 0 16 1;
#X connect 12 0 13 0;
#X connect 13 0 11 0;
#X connect 14 0 16 0;
#X connect 15 0 14 0;
#X connect 15 1 9 0;
#X connect 16 0 20 0;
#X connect 17 0 5 1;
#X connect 18 0 5 0;
#X connect 21 0 23 0;
#X connect 22 0 8 0;
#X connect 23 0 24 0;
#X connect 24 0 25 0;
#X connect 25 0 26 0;
#X connect 26 0 27 0;
#X connect 27 0 28 0;
#X connect 28 0 29 0;
#X connect 29 0 3 0;
#X restore 197 74 pd bottomUpperChain;
#X connect 0 0 1 0;
#X connect 0 0 2 0;
#X restore 71 174 pd topFXRow;
#X obj 194 46 s buttonlistener;
#X obj 71 151 *~ 1;
#X obj 379 22 delay 100;
#X connect 1 0 8 0;
#X connect 2 0 9 0;
#X connect 3 0 10 0;
#X connect 5 0 6 0;
#X connect 6 0 0 0;
#X connect 6 0 0 1;
#X connect 9 0 7 0;
#X connect 10 0 4 0;
