#N canvas 979 186 610 345 10;
#X obj 202 314 dac~;
#X obj 97 5 buttonlistener;
#X obj 67 58 adc~;
#X obj 379 -1 loadbang;
#X msg 379 44 \; pd dsp 1;
#X obj 379 22 delay 100;
#X obj 189 25 notein;
#X obj 189 51 stripnote;
#X obj 171 75 f;
#X obj 205 263 catch~ master;
#X obj 205 289 *~ 1;
#N canvas 978 97 450 300 topFXRow 0;
#X obj 85 41 inlet~;
#X obj 77 129 throw~ master;
#N canvas 78 260 620 313 upperChain 1;
#X obj 111 22 inlet~;
#X obj 111 160 outlet~;
#X obj 161 95 looper;
#X obj 177 67 bng 15 250 50 0 empty empty empty 17 7 0 10 -262144 -1
-1;
#X obj 205 63 tgl 15 0 empty empty empty 17 7 0 10 -262144 -1 -1 0
1;
#X text 202 10 each chain has 8 "links \, " each link can have 1 effect
registered to it.;
#N canvas 197 366 450 300 otherEffect 0;
#X obj 287 63 inlet~;
#X obj 268 236 outlet~;
#X obj 117 106 switch~;
#X msg 119 83 0;
#X obj 119 11 r allTopUpperOff;
#X obj 113 54 del 100;
#X obj 268 212 *~;
#X obj 307 180 line~;
#X msg 310 150 1 10;
#X msg 365 152 0 100;
#X msg 81 84 1;
#X connect 3 0 2 0;
#X connect 4 0 5 0;
#X connect 4 0 9 0;
#X connect 5 0 3 0;
#X connect 6 0 1 0;
#X connect 7 0 6 1;
#X connect 8 0 7 0;
#X connect 9 0 7 0;
#X connect 10 0 2 0;
#X restore 53 91 pd otherEffect;
#X obj 411 39 r allTopUpperOff;
#X msg 412 89 8;
#X obj 412 112 until;
#X obj 412 134 f;
#X obj 411 263 noteout 3;
#X obj 411 203 pack f 0;
#X obj 411 243 * 2;
#X obj 411 223 unpack f f;
#X obj 412 159 + 1;
#X msg 459 106 -1;
#X obj 412 64 t b b;
#X obj 411 182 + 40;
#X obj 235 164 chainLink 45;
#X obj 235 204 chainLink 47;
#X obj 496 271 chainLink;
#X obj 236 59 chainLink 40;
#X obj 235 80 chainLink 41;
#X obj 235 101 chainLink 42;
#X obj 235 124 chainLink 43;
#X obj 235 144 chainLink 44;
#X obj 235 184 chainLink 46;
#X connect 0 0 22 0;
#X connect 2 0 1 0;
#X connect 3 0 2 1;
#X connect 4 0 2 2;
#X connect 7 0 17 0;
#X connect 8 0 9 0;
#X connect 9 0 10 0;
#X connect 10 0 15 0;
#X connect 12 0 14 0;
#X connect 13 0 11 0;
#X connect 14 0 13 0;
#X connect 14 1 11 1;
#X connect 15 0 10 1;
#X connect 15 0 18 0;
#X connect 16 0 10 1;
#X connect 17 0 8 0;
#X connect 17 1 16 0;
#X connect 18 0 12 0;
#X connect 19 0 27 0;
#X connect 22 0 23 0;
#X connect 23 0 24 0;
#X connect 24 0 25 0;
#X connect 25 0 26 0;
#X connect 26 0 19 0;
#X connect 27 0 20 0;
#X restore 40 80 pd upperChain;
#X connect 0 0 2 0;
#X connect 2 0 1 0;
#X restore 32 130 pd topFXRow;
#X connect 1 0 8 0;
#X connect 2 0 11 0;
#X connect 3 0 5 0;
#X connect 5 0 4 0;
#X connect 6 0 7 0;
#X connect 6 1 7 1;
#X connect 7 0 8 1;
#X connect 9 0 10 0;
#X connect 10 0 0 0;
#X connect 10 0 0 1;
