#N canvas 177 181 610 345 10;
#X obj 202 314 dac~;
#X obj 97 5 buttonlistener;
#X obj 67 58 adc~;
#X obj 379 -1 loadbang;
#X msg 379 44 \; pd dsp 1;
#X obj 379 22 delay 100;
#X obj 189 25 notein;
#X obj 189 51 stripnote;
#X obj 171 75 f;
#X obj 205 263 catch~ master;
#X obj 205 289 *~ 1;
#N canvas 978 97 450 300 topFXRow 0;
#X obj 85 41 inlet~;
#X obj 77 129 throw~ master;
#N canvas 545 154 783 395 upperChain 0;
#X obj 111 22 inlet~;
#X text 202 10 each chain has 8 "links \, " each link can have 1 effect
registered to it.;
#N canvas 0 0 450 300 ledControls 0;
#X obj 131 39 r allTopUpperOff;
#X msg 132 89 8;
#X obj 132 112 until;
#X obj 132 134 f;
#X obj 131 263 noteout 3;
#X obj 131 203 pack f 0;
#X obj 131 243 * 2;
#X obj 131 223 unpack f f;
#X obj 132 159 + 1;
#X msg 179 106 -1;
#X obj 132 64 t b b;
#X obj 131 182 + 40;
#X connect 0 0 10 0;
#X connect 1 0 2 0;
#X connect 2 0 3 0;
#X connect 3 0 8 0;
#X connect 5 0 7 0;
#X connect 6 0 4 0;
#X connect 7 0 6 0;
#X connect 7 1 4 1;
#X connect 8 0 3 1;
#X connect 8 0 11 0;
#X connect 9 0 3 1;
#X connect 10 0 1 0;
#X connect 10 1 9 0;
#X connect 11 0 5 0;
#X restore 398 52 pd ledControls;
#X obj 234 229 throw~ master;
#X text 132 270 should throw some volume + solo/mute controls here
use horizontal sliders;
#X obj 236 59 chainLink 40;
#X obj 343 172 looper;
#X text 374 85 one looper per chain for now... it's a huge memory hog
;
#X obj 561 157 r loopLinkNumber;
#X obj 561 208 f 0;
#X obj 561 179 t f b;
#X text 556 128 switches last loop to bypass (if there was one in use)
;
#X obj 561 228 s loopOff;
#X floatatom 649 275 5 0 0 0 - - -;
#X floatatom 658 209 5 0 0 0 - - -;
#X obj 344 148 catch~ topUpperChainLooperIn;
#X obj 342 222 s~ topUpperChainLooperOut;
#X obj 235 204 chainLink 47;
#X obj 235 164 chainLink 45;
#X obj 235 80 chainLink 41;
#X obj 235 101 chainLink 42;
#X obj 235 124 chainLink 43;
#X obj 235 144 chainLink 44;
#X obj 235 184 chainLink 46;
#X connect 0 0 5 0;
#X connect 5 0 19 0;
#X connect 6 0 16 0;
#X connect 8 0 10 0;
#X connect 9 0 12 0;
#X connect 9 0 13 0;
#X connect 10 0 9 1;
#X connect 10 0 14 0;
#X connect 10 1 9 0;
#X connect 15 0 6 0;
#X connect 17 0 3 0;
#X connect 18 0 23 0;
#X connect 19 0 20 0;
#X connect 20 0 21 0;
#X connect 21 0 22 0;
#X connect 22 0 18 0;
#X connect 23 0 17 0;
#X restore 40 80 pd upperChain;
#X connect 0 0 2 0;
#X restore 71 174 pd topFXRow;
#X obj 188 103 osc~ 330;
#X obj 209 132 *~ 0.005;
#X floatatom 309 102 5 0 0 0 - - -;
#X connect 1 0 8 0;
#X connect 3 0 5 0;
#X connect 5 0 4 0;
#X connect 6 0 7 0;
#X connect 6 1 7 1;
#X connect 7 0 8 1;
#X connect 9 0 10 0;
#X connect 10 0 0 0;
#X connect 10 0 0 1;
#X connect 12 0 13 0;
#X connect 13 0 11 0;
#X connect 14 0 13 1;
