#N canvas 817 154 755 551 10;
#X obj 16 11 inlet~;
#X obj 158 515 outlet~;
#X obj 15 192 tabwrite~ \$0-looptable;
#X obj 159 318 tabplay~ \$0-looptable;
#X obj 159 34 tgl 15 0 empty empty empty 17 7 0 10 -262144 -1 -1 0
1;
#X obj 159 58 sel 0 1;
#X obj 195 204 timer;
#X obj 176 263 del;
#X msg 185 165 stop;
#X obj 36 227 r \$0-retrigger;
#X obj 176 292 s \$0-retrigger;
#X obj 159 140 t b b b b;
#X obj 178 83 t b b;
#X text 250 11 recording when toggle is one \, playing back when toggle
is zero;
#X obj 160 437 *~;
#X obj 182 414 line~;
#X msg 272 389 0 100;
#X obj 272 365 loadbang;
#X obj 252 58 s \$0-fader;
#X obj 213 340 r \$0-fader;
#X obj 213 361 sel 0 1;
#X obj 159 11 inlet bang;
#X text 404 83 90 seconds at 44100;
#X text 427 126 about 121 MB ram? assuming 32 bit float;
#X obj 281 105 table \$0-looptable 3.969e+06;
#X text 429 147 task monitor is only showing 34 MB \, maybe it's not
so bad?;
#X msg 213 383 1 10;
#X obj 159 481 *~ 1;
#X connect 0 0 2 0;
#X connect 0 0 27 0;
#X connect 3 0 14 0;
#X connect 4 0 5 0;
#X connect 4 0 18 0;
#X connect 5 0 11 0;
#X connect 5 1 12 0;
#X connect 6 0 7 1;
#X connect 7 0 3 0;
#X connect 7 0 10 0;
#X connect 8 0 2 0;
#X connect 9 0 7 0;
#X connect 11 0 3 0;
#X connect 11 1 7 0;
#X connect 11 2 8 0;
#X connect 11 3 6 1;
#X connect 12 0 2 0;
#X connect 12 1 6 0;
#X connect 14 0 27 0;
#X connect 15 0 14 1;
#X connect 16 0 15 0;
#X connect 17 0 16 0;
#X connect 19 0 20 0;
#X connect 20 0 26 0;
#X connect 20 1 16 0;
#X connect 21 0 4 0;
#X connect 26 0 15 0;
#X connect 27 0 1 0;
