#N canvas 0 61 800 814 10;
#X obj 44 75 inlet~;
#X obj 40 445 outlet~;
#N canvas 0 50 335 506 activateLogic 0;
#X obj 209 50 f \$1;
#X obj 125 250 ==;
#X obj 209 26 loadbang;
#X obj 26 131 max 15;
#X obj 26 154 min 48;
#X obj 26 213 sel 15 48;
#X obj 26 177 t f f;
#X obj 125 224 f;
#X obj 190 274 outlet;
#X obj 26 78 inlet;
#X connect 0 0 1 1;
#X connect 1 0 8 0;
#X connect 2 0 0 0;
#X connect 3 0 4 0;
#X connect 4 0 6 0;
#X connect 5 2 7 0;
#X connect 6 0 5 0;
#X connect 6 1 7 1;
#X connect 7 0 1 0;
#X connect 9 0 3 0;
#X restore 958 56 pd activateLogic;
#N canvas 336 410 651 418 ledControl 0;
#X obj 198 16 inlet;
#X obj 205 73 sel 1;
#X obj 314 142 s allTopUpperOff;
#X obj 205 94 t b b;
#X obj 190 222 noteout 3;
#X obj 190 145 pack \$1 127;
#X obj 190 167 unpack f f;
#X obj 190 195 * 2;
#X obj 43 169 f;
#X obj 67 20 r \$0-currentEffect;
#X obj 43 219 unpack f f;
#X obj 43 241 * 2;
#X obj 43 263 noteout 3;
#X obj 72 167 s allFXLightsOff;
#X obj 54 48 t b f;
#X obj 45 135 t b b;
#X obj 43 194 pack \$1 32;
#X connect 0 0 1 0;
#X connect 1 0 3 0;
#X connect 3 0 5 0;
#X connect 3 0 15 0;
#X connect 3 1 2 0;
#X connect 5 0 6 0;
#X connect 6 0 7 0;
#X connect 6 1 4 1;
#X connect 7 0 4 0;
#X connect 8 0 16 0;
#X connect 9 0 14 0;
#X connect 10 0 11 0;
#X connect 10 1 12 1;
#X connect 11 0 12 0;
#X connect 14 0 15 0;
#X connect 14 1 8 1;
#X connect 15 0 8 0;
#X connect 15 1 13 0;
#X connect 16 0 10 0;
#X restore 958 85 pd ledControl;
#X obj 1083 118 tgl 15 0 empty empty empty 17 7 0 10 -262144 -1 -1
0 1;
#X obj 1116 99 min 16;
#X obj 41 202 bypass;
#X obj 1308 142 r \$0-allOff;
#X obj 1150 219 s \$0-allOff;
#X obj 74 155 r \$0-bypass;
#X msg 1236 176 0;
#X obj 1236 200 s \$0-bypass;
#X obj 1117 195 sel 16;
#X obj 1090 168 t f f;
#X obj 1009 299 s \$0-bypass;
#X msg 1009 278 1;
#N canvas 541 267 450 300 noteInput 0;
#X obj 36 120 route 127;
#X obj 68 43 t b f;
#X obj 36 93 pack f f;
#X obj 55 17 notein 1;
#X obj 47 72 f;
#X obj 36 145 outlet;
#X connect 0 0 5 0;
#X connect 1 0 4 0;
#X connect 1 1 2 1;
#X connect 2 0 0 0;
#X connect 3 0 1 0;
#X connect 3 1 4 1;
#X connect 4 0 2 0;
#X restore 1036 18 pd noteInput;
#X obj 774 20 loadbang;
#X obj 816 69 s \$0-allOff;
#X obj 784 45 t b b;
#X obj 773 95 s \$0-bypass;
#X msg 773 66 1;
#X obj 185 135 r \$0-looper;
#X obj 126 204 bypass;
#X obj 1316 200 s \$0-looper;
#X msg 1316 176 0;
#X obj 125 276 bypass;
#X msg 1090 282 1;
#X obj 1090 303 s \$0-looper;
#X obj 241 190 \$0;
#X obj 1288 37 == \$0;
#X obj 1288 16 r loopOff;
#X msg 1248 83 1;
#X msg 1312 83 0;
#X obj 1224 110 s \$0-bypass;
#X obj 1324 111 s \$0-looper;
#X obj 1288 58 sel 1;
#X obj 241 166 sel 1;
#X obj 126 230 throw~ topUpperChainLooperIn;
#X obj 126 253 r~ topUpperChainLooperOut;
#X obj 947 124 tgl 15 0 empty empty empty 17 7 0 10 -262144 -1 -1 0
1;
#X obj 819 144 r buttonlistener;
#X obj 852 211 r \$0-looper;
#X obj 861 236 tgl 15 0 empty empty empty 17 7 0 10 -262144 -1 -1 0
1;
#X obj 814 310 s topUpperChainLooperButton;
#X obj 993 169 bng 15 250 50 0 empty empty empty 17 7 0 10 -262144
-1 -1;
#X obj 320 308 feedbackDelay;
#X msg 1192 281 1;
#X obj 1192 303 s \$0-feedbackDelay;
#X obj 390 231 r \$0-feedbackDelay;
#X msg 1396 176 0;
#X obj 1396 200 s \$0-feedbackDelay;
#X obj 890 167 spigot;
#X obj 869 264 spigot;
#X obj 1106 148 spigot;
#X obj 1329 302 s \$0-cubicDistortion;
#X msg 1329 281 1;
#X obj 1147 250 sel 0 1 2 3;
#X obj 565 280 r \$0-cubicDistortion;
#X obj 459 309 cubicDistortion;
#X msg 1246 226 0;
#X obj 1246 250 s \$0-cubicDistortion;
#X obj 1128 358 s \$0-currentEffect;
#X msg 1101 327 0;
#X msg 1151 327 1;
#X msg 1191 327 2;
#X msg 1231 327 3;
#X obj 241 211 s topUpperloopLinkNumber;
#X connect 0 0 6 0;
#X connect 0 0 23 0;
#X connect 0 0 46 0;
#X connect 0 0 59 0;
#X connect 2 0 3 0;
#X connect 2 0 4 0;
#X connect 2 0 40 0;
#X connect 2 0 46 2;
#X connect 2 0 59 2;
#X connect 4 0 54 1;
#X connect 5 0 54 0;
#X connect 6 0 1 0;
#X connect 7 0 10 0;
#X connect 7 0 25 0;
#X connect 7 0 50 0;
#X connect 7 0 60 0;
#X connect 9 0 6 1;
#X connect 10 0 11 0;
#X connect 12 1 8 0;
#X connect 13 0 57 0;
#X connect 13 1 12 0;
#X connect 15 0 14 0;
#X connect 16 0 2 0;
#X connect 16 0 5 0;
#X connect 17 0 19 0;
#X connect 19 0 21 0;
#X connect 19 1 18 0;
#X connect 21 0 20 0;
#X connect 22 0 23 1;
#X connect 22 0 26 1;
#X connect 22 0 37 0;
#X connect 23 0 38 0;
#X connect 25 0 24 0;
#X connect 26 0 1 0;
#X connect 27 0 28 0;
#X connect 29 0 67 0;
#X connect 30 0 36 0;
#X connect 31 0 30 0;
#X connect 32 0 34 0;
#X connect 33 0 35 0;
#X connect 36 0 33 0;
#X connect 36 0 32 0;
#X connect 37 0 29 0;
#X connect 39 0 26 0;
#X connect 40 0 52 1;
#X connect 41 0 52 0;
#X connect 42 0 43 0;
#X connect 43 0 53 1;
#X connect 45 0 52 1;
#X connect 46 0 1 0;
#X connect 47 0 48 0;
#X connect 49 0 46 1;
#X connect 50 0 51 0;
#X connect 52 0 53 0;
#X connect 53 0 44 0;
#X connect 54 0 13 0;
#X connect 56 0 55 0;
#X connect 57 0 15 0;
#X connect 57 0 63 0;
#X connect 57 1 27 0;
#X connect 57 1 64 0;
#X connect 57 2 47 0;
#X connect 57 2 65 0;
#X connect 57 3 56 0;
#X connect 57 3 66 0;
#X connect 58 0 59 1;
#X connect 59 0 1 0;
#X connect 60 0 61 0;
#X connect 63 0 62 0;
#X connect 64 0 62 0;
#X connect 65 0 62 0;
#X connect 66 0 62 0;
