#N canvas 0 0 1328 800 10;
#X obj 169 111 unpack f f;
#X floatatom 172 62 5 0 0 0 - - -;
#X obj 166 91 pack f 0;
#X obj 259 111 unpack f f;
#X floatatom 262 62 5 0 0 0 - - -;
#X obj 184 153 noteout 3;
#X obj 274 153 noteout 3;
#X obj 255 91 pack f 20;
#X floatatom 334 61 5 0 0 0 - - -;
#X obj 711 61 notein;
#X floatatom 685 134 5 0 0 0 - - -;
#X floatatom 735 141 5 0 0 0 - - -;
#X floatatom 787 151 5 0 0 0 - - -;
#X obj 57 79 ctlin;
#X floatatom 11 138 5 0 0 0 - - -;
#X floatatom 57 145 5 0 0 0 - - -;
#X floatatom 52 284 5 0 0 0 - - -;
#X obj -15 259 unpack f f;
#X obj -32 341 ctlout 11 1;
#X floatatom 106 275 5 0 0 0 - - -;
#X floatatom 191 290 5 0 0 0 - - -;
#X floatatom -19 298 5 0 0 0 - - -;
#N canvas 502 74 450 300 filter 0;
#X obj 140 37 inlet;
#X obj 140 77 t b f b f;
#X obj 168 143 >;
#X obj 135 218 f;
#X obj 157 114 f;
#X obj 139 163 f;
#X obj 136 189 sel 0;
#X floatatom 136 253 5 0 0 0 - - -;
#X floatatom 224 31 5 0 0 0 - - -;
#X connect 0 0 1 0;
#X connect 1 0 5 0;
#X connect 1 1 4 1;
#X connect 1 2 4 0;
#X connect 1 3 2 1;
#X connect 1 3 3 1;
#X connect 2 0 5 1;
#X connect 3 0 7 0;
#X connect 4 0 2 0;
#X connect 5 0 6 0;
#X connect 6 0 3 0;
#X connect 8 0 1 0;
#X restore 101 316 pd filter;
#X obj 682 372 * 2;
#X obj 858 359 noteout 4;
#X obj 858 313 unpack f f;
#X obj 858 335 * 2;
#X msg 869 232 1 127;
#X obj 958 273 unpack f f;
#X obj 958 295 * 2;
#X msg 969 232 1 127;
#X obj 958 319 noteout 3;
#X text 826 94 user input is on channel 1 - ignore stupid LED messages
on channel 3!;
#X obj 710 208 route 1;
#X obj 710 187 pack f f f;
#X floatatom 684 262 5 0 0 0 - - -;
#X floatatom 742 263 5 0 0 0 - - -;
#X obj 710 234 route 127;
#X obj 682 444 noteout 3;
#X obj 682 339 unpack f f;
#X obj 1130 332 until;
#X msg 1130 308 64;
#X obj 1130 358 f;
#X obj 1130 385 + 1;
#X floatatom 1130 418 5 0 0 0 - - -;
#X obj 1130 463 unpack f f;
#X floatatom 1195 384 5 0 0 0 - - -;
#X msg 1181 331 -1;
#X obj 1130 511 noteout 3;
#X obj 1130 489 * 2;
#X obj 1130 439 pack f 40;
#X msg 1081 254 0;
#X text 1076 247 comment;
#X obj 1130 284 t b b f;
#X msg 1121 254 40;
#X msg 1161 254 127;
#X obj 871 448 s clearAll;
#X obj 682 313 pack f 40;
#X obj 1076 226 r clearAll;
#X obj 682 406 t f b;
#X obj 671 158 t b f;
#X obj 70 442 ctlout 11 1;
#X obj 73 396 unpack f f;
#X msg 81 370 127 11;
#X floatatom 47 411 5 0 0 0 - - -;
#X floatatom 147 421 5 0 0 0 - - -;
#X obj 170 452 ctlout 10 1;
#X floatatom 67 471 5 0 0 0 - - -;
#X floatatom 167 481 5 0 0 0 - - -;
#X obj 90 502 ctlout 9 1;
#X obj 190 516 ctlout 8 1;
#X obj 7 171 pack f f;
#X floatatom 32 244 5 0 0 0 - - -;
#X floatatom 263 435 5 0 0 0 - - -;
#X floatatom 341 460 5 0 0 0 - - -;
#X obj 281 516 ctlout 1 1;
#X text 253 335 1 2 3 4 for vsliders;
#X obj 281 460 mod 127;
#X text 234 353 5 for biiig slider guy;
#X text 262 379 6 and 7 for googly eyes;
#X floatatom 420 569 5 0 0 0 - - -;
#X floatatom 478 640 5 0 0 0 - - -;
#X obj 418 640 mod 127;
#X obj 420 510 f;
#X obj 420 538 + 1;
#X obj 418 696 ctlout 6 1;
#X floatatom 555 578 5 0 0 0 - - -;
#X floatatom 633 603 5 0 0 0 - - -;
#X obj 573 603 mod 127;
#X obj 530 501 f;
#X obj 530 529 - 1;
#X obj 512 402 tgl 15 0 empty empty empty 17 7 0 10 -262144 -1 -1 0
1;
#X obj 550 559 + 1000;
#X obj 573 659 ctlout 7 1;
#X obj 530 480 metro 9;
#X obj 401 448 metro 8;
#X floatatom 670 583 5 0 0 0 - - -;
#X floatatom 748 608 5 0 0 0 - - -;
#X obj 688 608 mod 127;
#X obj 645 506 f;
#X obj 645 534 - 1;
#X obj 665 564 + 1000;
#X obj 645 485 metro 9;
#X obj 688 664 ctlout 1 1;
#X floatatom 788 587 5 0 0 0 - - -;
#X obj 806 612 mod 127;
#X obj 763 510 f;
#X obj 763 538 - 1;
#X obj 783 568 + 1000;
#X obj 763 489 metro 10;
#X floatatom 886 588 5 0 0 0 - - -;
#X floatatom 964 613 5 0 0 0 - - -;
#X obj 904 613 mod 127;
#X obj 861 511 f;
#X obj 861 539 - 1;
#X obj 881 569 + 1000;
#X obj 861 490 metro 10;
#X obj 807 668 ctlout 2 1;
#X obj 904 669 ctlout 3 1;
#X floatatom 988 598 5 0 0 0 - - -;
#X floatatom 1066 623 5 0 0 0 - - -;
#X obj 1009 656 mod 127;
#X obj 963 521 f;
#X obj 963 549 - 1;
#X obj 983 579 + 1000;
#X obj 963 500 metro 10;
#X obj 1006 679 ctlout 4 1;
#X obj 1112 615 mod 256;
#X floatatom 1172 663 5 0 0 0 - - -;
#X floatatom 1119 688 5 0 0 0 - - -;
#X obj 1110 645 - 127;
#X obj 346 191 vsl 15 128 0 127 0 0 empty empty empty 0 -9 0 10 -262144
-1 -1 900 1;
#X floatatom 83 184 5 0 0 0 - - -;
#X obj 95 154 moses 12;
#X floatatom 145 197 5 0 0 0 - - -;
#X obj -4 210 route 1 2;
#X connect 0 0 5 0;
#X connect 0 1 5 1;
#X connect 1 0 2 0;
#X connect 2 0 0 0;
#X connect 3 0 6 0;
#X connect 3 1 6 1;
#X connect 4 0 7 0;
#X connect 7 0 3 0;
#X connect 8 0 7 1;
#X connect 9 0 10 0;
#X connect 9 1 11 0;
#X connect 9 2 12 0;
#X connect 10 0 60 0;
#X connect 11 0 34 1;
#X connect 12 0 34 0;
#X connect 13 0 14 0;
#X connect 13 1 15 0;
#X connect 13 1 133 0;
#X connect 14 0 71 1;
#X connect 15 0 71 0;
#X connect 16 0 18 2;
#X connect 17 0 21 0;
#X connect 17 1 16 0;
#X connect 19 0 22 0;
#X connect 19 0 131 0;
#X connect 23 0 59 0;
#X connect 25 0 26 0;
#X connect 25 1 24 1;
#X connect 26 0 24 0;
#X connect 27 0 25 0;
#X connect 28 0 29 0;
#X connect 28 1 31 1;
#X connect 29 0 31 0;
#X connect 30 0 28 0;
#X connect 33 0 37 0;
#X connect 34 0 33 0;
#X connect 35 0 57 0;
#X connect 37 0 35 0;
#X connect 37 1 36 0;
#X connect 39 0 23 0;
#X connect 39 1 38 1;
#X connect 40 0 42 0;
#X connect 41 0 40 0;
#X connect 42 0 43 0;
#X connect 42 0 46 0;
#X connect 43 0 44 0;
#X connect 43 0 42 1;
#X connect 44 0 50 0;
#X connect 45 0 49 0;
#X connect 45 1 48 1;
#X connect 47 0 42 1;
#X connect 49 0 48 0;
#X connect 50 0 45 0;
#X connect 51 0 53 0;
#X connect 53 0 41 0;
#X connect 53 1 47 0;
#X connect 53 2 50 1;
#X connect 54 0 53 0;
#X connect 55 0 53 0;
#X connect 57 0 39 0;
#X connect 58 0 51 0;
#X connect 59 0 38 0;
#X connect 59 1 56 0;
#X connect 60 0 34 0;
#X connect 60 1 34 2;
#X connect 62 1 61 1;
#X connect 63 0 62 0;
#X connect 64 0 61 0;
#X connect 65 0 66 0;
#X connect 67 0 69 0;
#X connect 68 0 70 0;
#X connect 71 0 135 0;
#X connect 73 0 77 0;
#X connect 74 0 75 1;
#X connect 77 0 75 0;
#X connect 80 0 82 0;
#X connect 81 0 85 1;
#X connect 82 0 85 0;
#X connect 83 0 84 0;
#X connect 84 0 83 1;
#X connect 84 0 80 0;
#X connect 86 0 88 0;
#X connect 87 0 93 1;
#X connect 88 0 93 0;
#X connect 89 0 90 0;
#X connect 90 0 89 1;
#X connect 90 0 92 0;
#X connect 91 0 94 0;
#X connect 91 0 95 0;
#X connect 91 0 102 0;
#X connect 91 0 109 0;
#X connect 91 0 116 0;
#X connect 91 0 125 0;
#X connect 92 0 86 0;
#X connect 94 0 89 0;
#X connect 95 0 83 0;
#X connect 96 0 98 0;
#X connect 97 0 103 1;
#X connect 98 0 103 0;
#X connect 99 0 100 0;
#X connect 100 0 99 1;
#X connect 100 0 101 0;
#X connect 101 0 96 0;
#X connect 102 0 99 0;
#X connect 104 0 105 0;
#X connect 105 0 117 0;
#X connect 106 0 107 0;
#X connect 107 0 106 1;
#X connect 107 0 108 0;
#X connect 108 0 104 0;
#X connect 109 0 106 0;
#X connect 110 0 112 0;
#X connect 111 0 118 1;
#X connect 112 0 118 0;
#X connect 113 0 114 0;
#X connect 114 0 113 1;
#X connect 114 0 115 0;
#X connect 115 0 110 0;
#X connect 116 0 113 0;
#X connect 119 0 127 0;
#X connect 120 0 126 1;
#X connect 121 0 126 0;
#X connect 121 0 129 0;
#X connect 122 0 123 0;
#X connect 123 0 122 1;
#X connect 123 0 124 0;
#X connect 124 0 119 0;
#X connect 125 0 122 0;
#X connect 127 0 128 0;
#X connect 127 0 130 0;
#X connect 130 0 121 0;
#X connect 133 0 132 0;
#X connect 133 1 134 0;
#X connect 135 0 17 0;
#X connect 135 0 72 0;
#X connect 135 1 19 0;
#X connect 135 2 20 0;
